<svg width="85" height="72" viewBox="0 0 85 72" fill="none" xmlns="http://www.w3.org/2000/svg">
<path d="M52.1313 29.4863C52.1313 42.0899 44.6047 52.5938 41.6017 56.2871V53.9282V53.9241C44.889 49.4989 50.7027 40.1592 50.7027 29.4863C50.7027 18.7042 44.7691 9.34476 41.5037 4.92953L40.6017 3.70988V5.22684V49.5597C40.2188 47.7118 39.742 45.8842 39.1732 44.0839V5.22684V3.72873L38.2734 4.92654C35.1018 9.14871 29.4456 18.1403 29.097 28.5136L29.0967 28.5219V28.5303V28.5322V28.5341V28.536V28.5379V28.5398V28.5417V28.5436V28.5455V28.5474V28.5492V28.5511V28.553V28.5549V28.5568V28.5587V28.5606V28.5625V28.5644V28.5662V28.5681V28.57V28.5719V28.5738V28.5757V28.5775V28.5794V28.5813V28.5832V28.5851V28.587V28.5889V28.5907V28.5926V28.5945V28.5964V28.5983V28.6001V28.602V28.6039V28.6058V28.6077V28.6096V28.6114V28.6133V28.6152V28.6171V28.6189V28.6208V28.6227V28.6246V28.6265V28.6283V28.6302V28.6321V28.634V28.6359V28.6377V28.6396V28.6415V28.6434V28.6452V28.6471V28.649V28.6509V28.6527V28.6546V28.6565V28.6584V28.6602V28.6621V28.664V28.6659V28.6677V28.6696V28.6715V28.6734V28.6752V28.6771V28.679V28.6808V28.6827V28.6846V28.6865V28.6883V28.6902V28.6921V28.6939V28.6958V28.6977V28.6996V28.7014V28.7033V28.7052V28.707V28.7089V28.7108V28.7126V28.7145V28.7164V28.7183V28.7201V28.722V28.7239V28.7257V28.7276V28.7295V28.7313V28.7332V28.7351V28.7369V28.7388V28.7407V28.7425V28.7444V28.7463V28.7481V28.75V28.7519V28.7537V28.7556V28.7575V28.7593V28.7612V28.7631V28.7649V28.7668V28.7686V28.7705V28.7724V28.7742V28.7761V28.778V28.7798V28.7817V28.7836V28.7854V28.7873V28.7891V28.791V28.7929V28.7947V28.7966V28.7985V28.8003V28.8022V28.804V28.8059V28.8078V28.8096V28.8115V28.8133V28.8152V28.8171V28.8189V28.8208V28.8227V28.8245V28.8264V28.8282V28.8301V28.832V28.8338V28.8357V28.8375V28.8394V28.8413V28.8431V28.845V28.8468V28.8487V28.8505V28.8524V28.8543V28.8561V28.858V28.8598V28.8617V28.8636V28.8654V28.8673V28.8691V28.871V28.8729V28.8747V28.8766V28.8784V28.8803V28.8821V28.884V28.8859V28.8877V28.8896V28.8914V28.8933V28.8951V28.897V28.8989V28.9007V28.9026V28.9044V28.9063V28.9081V28.91V28.9119V28.9137V28.9156V28.9174V28.9193V28.9211V28.923V28.9248V28.9267V28.9286V28.9304V28.9323V28.9341V28.936V28.9378V28.9397V28.9416V28.9434V28.9453V28.9471V28.949V28.9508V28.9527V28.9545V28.9564V28.9583V28.9601V28.962V28.9638V28.9657V28.9675V28.9694V28.9712V28.9731V28.975V28.9768V28.9787V28.9805V28.9824V28.9842V28.9861V28.9879V28.9898V28.9916V28.9935V28.9954V28.9972V28.9991V29.0009V29.0028V29.0046V29.0065V29.0083V29.0102V29.0121V29.0139V29.0158V29.0176V29.0195V29.0213V29.0232V29.025V29.0269V29.0287V29.0306V29.0325V29.0343V29.0362V29.038V29.0399V29.0417V29.0436V29.0454V29.0473V29.0492V29.051V29.0529V29.0547V29.0566V29.0584V29.0603V29.0621V29.064V29.0659V29.0677V29.0696V29.0714V29.0733V29.0751V29.077V29.0788V29.0807V29.0826V29.0844V29.0863V29.0881V29.09V29.0918V29.0937V29.0955V29.0974V29.0993V29.1011V29.103V29.1048V29.1067V29.1085V29.1104V29.1123V29.1141V29.116V29.1178V29.1197V29.1215V29.1234V29.1253V29.1271V29.129V29.1308V29.1327V29.1345V29.1364V29.1383V29.1401V29.142V29.1438V29.1457V29.1475V29.1494V29.1513V29.1531V29.155V29.1568V29.1587V29.1606V29.1624V29.1643V29.1661V29.168V29.1699V29.1717V29.1736V29.1754V29.1773V29.1791V29.181V29.1829V29.1847V29.1866V29.1884V29.1903V29.1922V29.194V29.1959V29.1978V29.1996V29.2015V29.2033V29.2052V29.2071V29.2089V29.2108V29.2126V29.2145V29.2164V29.2182V29.2201V29.222V29.2238V29.2257V29.2275V29.2294V29.2313V29.2331V29.235V29.2369V29.2387V29.2406V29.2424V29.2443V29.2462V29.248V29.2499V29.2518V29.2536V29.2555V29.2574V29.2592V29.2611V29.263V29.2648V29.2667V29.2686V29.2704V29.2723V29.2742V29.276V29.2779V29.2798V29.2816V29.2835V29.2854V29.2872V29.2891V29.291V29.2928V29.2947V29.2966V29.2984V29.3003V29.3022V29.304V29.3059V29.3078V29.3096V29.3115V29.3134V29.3153V29.3171V29.319V29.3209V29.3227V29.3246V29.3265V29.3284V29.3302V29.3321V29.334V29.3358V29.3377V29.3396V29.3415V29.3433V29.3452V29.3471V29.3489V29.3508V29.3527V29.3546V29.3564V29.3583V29.3602V29.3621V29.3639V29.3658V29.3677V29.3696V29.3714V29.3733V29.3752V29.3771V29.379V29.3808V29.3827V29.3846V29.3865V29.3883V29.3902V29.3921V29.394V29.3959V29.3977V29.3996V29.4015V29.4034V29.4053V29.4071V29.409V29.4109V29.4128V29.4147V29.4165V29.4184V29.4203V29.4222V29.4241V29.4259V29.4278V29.4297V29.4316V29.4335V29.4354V29.4373V29.4391V29.441V29.4429V29.4448V29.4467V29.4486V29.4504V29.4523V29.4542V29.4561V29.458V29.4599V29.4618V29.4637V29.4655V29.4674V29.4693V29.4712V29.4731V29.475V29.4769V29.4788V29.4807V29.4826V29.4844L29.0967 29.4863L29.0967 29.488C29.0999 30.4584 29.154 31.428 29.2587 32.3926C29.9739 39.8623 33.2789 46.4587 36.1064 50.8784L32.1145 46.8302C29.3216 41.5006 27.7986 35.5829 27.668 29.55L27.6635 29.3417L27.5124 29.1983C20.0375 22.0987 9.7283 19.7953 4.54027 19.1326L3.10267 18.949L4.12123 19.98L31.2953 47.4859C32.1478 49.1746 33.0877 50.8155 34.1109 52.4017L3.11543 21.0277L2.06138 19.9608L2.26434 21.4468C3.00407 26.8629 5.37719 37.7508 12.915 45.4059C20.3755 52.9825 31.0131 55.4272 36.4251 56.1677L38.0889 57.8604C33.3925 57.4044 20.7102 55.3621 11.8975 46.4419C6.52938 41.0081 3.6783 34.107 2.16962 28.4511C0.667735 22.8208 0.506822 18.4647 0.5 18.1094V17.2979H1.30014C1.59294 17.2979 5.36658 17.4363 10.407 18.6983C15.4469 19.9602 21.7187 22.337 27.0436 26.7909L27.7726 27.4006L27.8621 26.4544C29.1799 12.5285 38.9755 1.81023 39.4567 1.28364L39.4593 1.28085L39.9733 0.731703L40.4787 1.27164C40.5081 1.30762 40.5582 1.3664 40.6271 1.44723C42.0979 3.17202 52.1313 14.9384 52.1313 29.4863Z" fill="#000578" stroke="#013D3D"/>
<path d="M68.0501 59.6119L68.0231 59.626L67.998 59.6433C66.3654 60.7665 63.3864 61.7668 59.4827 62.4825C55.5979 63.1948 50.8573 63.615 45.7496 63.615C40.642 63.615 35.9013 63.1948 32.0166 62.4825C28.1129 61.7668 25.1338 60.7665 23.5013 59.6433L23.4762 59.626L23.4491 59.6119C23.1015 59.4305 22.8019 59.1662 22.5765 58.841C22.3573 58.5248 22.2148 58.1605 22.1606 57.7776C22.1763 57.19 22.65 56.5027 23.8158 55.7812C24.9743 55.0642 26.684 54.3998 28.8411 53.8346C33.1479 52.706 39.1257 52.001 45.7496 52.001C52.3742 52.001 58.352 52.6968 62.6586 53.8207C64.8157 54.3837 66.5249 55.0468 67.683 55.7652C68.8473 56.4874 69.3231 57.1793 69.3387 57.7775C69.2845 58.1604 69.1419 58.5248 68.9228 58.841C68.6973 59.1662 68.3977 59.4305 68.0501 59.6119Z" fill="white" stroke="#013D3D"/>
<path d="M68.5402 60.4815C68.8345 60.3245 69.1034 60.1256 69.3391 59.8918V62.2875C69.3391 62.8819 68.8692 63.5813 67.6831 64.3164C66.5246 65.0346 64.8149 65.7004 62.6578 66.2672C58.3511 67.3988 52.3734 68.1068 45.7496 68.1068C39.1258 68.1068 33.1482 67.3988 28.8414 66.2672C26.6844 65.7004 24.9747 65.0346 23.8161 64.3164C22.63 63.5813 22.1602 62.8819 22.1602 62.2875V59.8918C22.3959 60.1256 22.6648 60.3245 22.959 60.4815C24.7769 61.722 27.9199 62.7456 31.8362 63.4637C35.7891 64.1884 40.591 64.6125 45.7496 64.6125C50.9083 64.6125 55.7101 64.1884 59.663 63.4637C63.5793 62.7456 66.7224 61.722 68.5402 60.4815Z" fill="white" stroke="#013D3D"/>
<path d="M68.222 59.9065L68.2221 59.9065L68.2276 59.9026C68.5312 59.6868 68.891 59.3982 69.1795 59.0579C69.4618 58.7247 69.7258 58.283 69.7258 57.7693C69.7258 57.2761 69.5043 56.8236 69.1644 56.4264C68.8253 56.03 68.3444 55.6592 67.7569 55.3134C66.5812 54.6212 64.8945 53.9804 62.8028 53.4322C58.6124 52.3341 52.6992 51.5831 45.7496 51.5831C38.8001 51.5831 32.8869 52.3341 28.6965 53.4322C26.6048 53.9804 24.9181 54.6212 23.7423 55.3134C23.1548 55.6592 22.6739 56.03 22.3348 56.4264C21.9949 56.8236 21.7734 57.2761 21.7734 57.7693C21.7734 58.2806 22.0319 58.7216 22.3142 59.0567C22.6019 59.3983 22.9629 59.6878 23.2757 59.9054L23.2772 59.9065C25.0876 61.1565 28.266 62.1608 32.1667 62.8567C36.088 63.5564 40.8063 63.9555 45.7496 63.9555C50.693 63.9555 55.4112 63.5564 59.3326 62.8567C63.2332 62.1608 66.4116 61.1565 68.222 59.9065ZM25.9134 61.8291V61.5048L25.6173 61.3726C25.5014 61.3208 25.3874 61.2713 25.2767 61.2232C24.9596 61.0855 24.6694 60.9595 24.4372 60.8252L23.6868 60.3912V61.258V64.3494V64.6379L23.9367 64.7823C24.35 65.0211 24.7759 65.2367 25.2127 65.4281L25.9134 65.7352V64.9702V61.8291ZM26.7871 61.7982L26.1399 61.5988V62.2761V65.4419V65.797L26.4752 65.914C26.8374 66.0404 27.2272 66.1678 27.6315 66.2829L28.2684 66.4642V65.802V62.6237V62.2545L27.9156 62.1458L26.7871 61.7982ZM29.1294 62.4649L28.4949 62.2877V62.9465V66.1496V66.542L28.8761 66.6353L29.9923 66.9084L30.6111 67.0599V66.4228V63.2072V62.8086L30.2225 62.7198C30.1013 62.6921 29.9846 62.6665 29.8715 62.6417C29.61 62.5845 29.3672 62.5313 29.1294 62.4649ZM31.4296 62.964L30.8377 62.8533V63.4555V66.6835V67.0986L31.2457 67.1749L32.3741 67.386L32.9661 67.4967V66.8945V63.6666V63.2514L32.558 63.1751L31.4296 62.964ZM33.7628 63.3702L33.1926 63.2894V63.8652V67.0932V67.5273L33.6225 67.5882L34.849 67.762L35.4192 67.8428V67.267V64.039V63.6049L34.9893 63.544L33.7628 63.3702ZM36.201 63.6787L35.6457 63.6168V64.1756V67.4284V67.8803L36.0954 67.9258L37.3219 68.05L37.8723 68.1057V67.5526V64.3122V63.8647L37.4276 63.8152L36.201 63.6787ZM38.6342 63.9251L38.0988 63.8872V64.4239V67.6519V68.1177L38.5635 68.1506L39.79 68.2375L40.3254 68.2755V67.7388V64.5108V64.045L39.8607 64.012L38.6342 63.9251ZM41.0751 64.0734L40.5519 64.0491V64.5729V67.8257V68.303L41.0287 68.3252L42.3657 68.3872L42.8889 68.4115V67.8878V64.6349V64.1576L42.4121 64.1355L41.0751 64.0734ZM43.6154 64.1722H43.1154V64.6722V67.9126V68.4126H43.6154H45.0873H45.5873V67.9126V64.6722V64.1722H45.0873H43.6154ZM21.7244 62.2512V62.7512H21.8541C21.9645 63.1467 22.1799 63.508 22.4816 63.7937L23.3254 64.5927V63.4307V60.5255V60.2578L23.1026 60.1094C22.9121 59.9825 22.7316 59.8408 22.5627 59.6856L21.7244 58.9151V60.0537V62.2512ZM48.3283 67.8878V68.4049L48.8451 68.3875C54.9397 68.1816 60.0705 67.3892 63.6922 66.3268C65.4997 65.7965 66.9562 65.1919 67.9722 64.5433C68.9518 63.918 69.6767 63.1507 69.6767 62.2512V60.0413V58.924L68.8436 59.6684C68.6692 59.8243 68.4852 59.9687 68.2927 60.1009L68.2922 60.1012C66.5783 61.2814 63.5881 62.2906 59.7355 63.0106C55.8999 63.7274 51.266 64.1475 46.3101 64.1846L45.8138 64.1883V64.6846V67.925V68.425H46.3138H47.6017H48.1017V67.925V66.8234H48.3283V67.8878ZM21.5469 57.7693C21.5469 56.9227 22.1525 56.0651 23.4855 55.2364C24.8018 54.418 26.7092 53.7063 29.0264 53.1236C33.6531 51.9601 39.7857 51.3416 45.7496 51.3416C51.7084 51.3416 57.8408 51.9447 62.4686 53.105C64.7864 53.6862 66.694 54.3992 68.0103 55.2248C69.3408 56.0593 69.9524 56.9313 69.9524 57.8065V62.2512C69.9524 63.1015 69.3459 63.9614 68.0133 64.7916C66.6972 65.6116 64.7899 66.3243 62.4727 66.9078C57.8461 68.0729 51.7136 68.6914 45.7496 68.6914C39.7849 68.6914 33.6524 68.0851 29.026 66.9263C26.7088 66.3459 24.8021 65.6347 23.4864 64.8128C22.1558 63.9816 21.5469 63.1157 21.5469 62.2512V57.7693Z" fill="#000578" stroke="#013D3D"/>
<path d="M68.0501 51.0196L68.0231 51.0337L67.998 51.051C66.3654 52.1742 63.3864 53.1745 59.4827 53.8903C55.5979 54.6026 50.8573 55.0227 45.7496 55.0227C40.642 55.0227 35.9013 54.6026 32.0166 53.8903C28.1129 53.1745 25.1338 52.1742 23.5013 51.051L23.4762 51.0337L23.4491 51.0196C23.1015 50.8383 22.8019 50.5739 22.5765 50.2487C22.3573 49.9325 22.2148 49.5682 22.1606 49.1853C22.1763 48.5976 22.6502 47.9094 23.8161 47.1868C24.9747 46.4687 26.6844 45.8028 28.8414 45.236C33.1482 44.1044 39.1258 43.3964 45.7496 43.3964C52.3734 43.3964 58.3511 44.1044 62.6578 45.236C64.8149 45.8028 66.5246 46.4687 67.6831 47.1868C68.849 47.9094 69.3229 48.5976 69.3387 49.1853C69.2845 49.5682 69.1419 49.9325 68.9228 50.2487C68.6973 50.5739 68.3977 50.8383 68.0501 51.0196Z" fill="white" stroke="#013D3D"/>
<path d="M68.5402 51.8887C68.8345 51.7317 69.1034 51.5328 69.3391 51.2991V53.6947C69.3391 54.2891 68.8692 54.9885 67.6831 55.7237C66.5246 56.4418 64.8149 57.1076 62.6578 57.6744C58.3511 58.806 52.3734 59.5141 45.7496 59.5141C39.1258 59.5141 33.1482 58.806 28.8414 57.6744C26.6844 57.1076 24.9747 56.4418 23.8161 55.7237C22.63 54.9885 22.1602 54.2891 22.1602 53.6947V51.2991C22.3959 51.5328 22.6648 51.7317 22.959 51.8887C24.7769 53.1292 27.9199 54.1528 31.8362 54.8709C35.7891 55.5957 40.591 56.0197 45.7496 56.0197C50.9083 56.0197 55.7101 55.5957 59.663 54.8709C63.5793 54.1528 66.7224 53.1292 68.5402 51.8887Z" fill="white" stroke="#013D3D"/>
<path d="M68.2213 51.3504L68.2214 51.3505L68.2276 51.3461C68.5312 51.1303 68.891 50.8417 69.1795 50.5014C69.4618 50.1682 69.7258 49.7265 69.7258 49.2128C69.7258 48.7196 69.5044 48.267 69.1646 47.8695C68.8255 47.4729 68.3448 47.1016 67.7573 46.7551C66.5816 46.0617 64.8949 45.4193 62.8031 44.8696C58.6126 43.7684 52.6993 43.0142 45.7496 43.0142C38.7999 43.0142 32.8866 43.7684 28.6961 44.8696C26.6044 45.4193 24.9177 46.0617 23.742 46.7551C23.1545 47.1016 22.6737 47.4729 22.3346 47.8695C21.9949 48.267 21.7734 48.7196 21.7734 49.2128C21.7734 49.7241 22.0319 50.1651 22.3142 50.5002C22.6019 50.8418 22.9629 51.1313 23.2757 51.3489L23.2772 51.35C25.0876 52.6 28.266 53.6043 32.1667 54.3002C36.088 54.9999 40.8063 55.399 45.7496 55.399C50.693 55.399 55.4082 54.9999 59.328 54.3002C63.2274 53.6042 66.4052 52.6 68.2213 51.3504ZM26.0115 53.3099V52.9746L25.7014 52.8473C25.2548 52.664 24.8535 52.4844 24.5169 52.3082L23.785 51.925V52.7512V55.8426V56.1358L24.0409 56.2789C24.4541 56.51 24.8782 56.7204 25.3119 56.9093L26.0115 57.2141V56.4509V53.3099ZM26.8853 53.2665L26.2381 53.0672V53.7444V56.9227V57.288L26.5861 57.399L27.7145 57.7591L28.3665 57.9671V57.2827V54.092V53.7228L28.0137 53.6142L26.8853 53.2665ZM29.2056 53.9276L28.593 53.7861V54.4148V57.618V58.0114L28.9754 58.1039L30.1039 58.3771L30.7215 58.5266V57.8911V54.6755V54.2779L30.334 54.1884L29.2056 53.9276ZM31.5357 54.4316L30.948 54.327V54.9238V58.1394V58.5537L31.3551 58.6307L32.4713 58.8418L33.0642 58.9539V58.3505V55.1225V54.7036L32.6518 54.6302L31.5357 54.4316ZM33.8609 54.8261L33.2908 54.7453V55.3211V58.5491V58.9833L33.7206 59.0442L34.9472 59.218L35.5173 59.2988V58.7229V55.4949V55.0608L35.0875 54.9999L33.8609 54.8261ZM36.2966 55.1343L35.7439 55.0757V55.6315V58.9216V59.3757L36.1959 59.4192L37.4837 59.5434L38.0317 59.5962V59.0457V55.7681V55.3183L37.5845 55.2709L36.2966 55.1343ZM38.7936 55.3687L38.2583 55.3307V55.8674V59.1202V59.5908L38.728 59.6193L39.9545 59.6938L40.4848 59.726V59.1947V55.9543V55.4885L40.0202 55.4556L38.7936 55.3687ZM21.7734 53.6947V53.7233L21.7767 53.7517C21.8137 54.0743 21.9149 54.3861 22.0743 54.6685C22.2337 54.9509 22.4482 55.1982 22.7052 55.3952L23.5094 56.0116V54.9983V52.0559V51.7832L23.2801 51.6355L23.1485 51.5508C22.9592 51.4245 22.7798 51.2835 22.6118 51.1291L21.7734 50.3586V51.4972V53.6947ZM40.7114 59.2692V59.7281L41.1686 59.7674C42.6374 59.8933 44.1763 59.8933 45.7377 59.8933H45.7496C52.6993 59.8933 58.6126 59.1392 62.8031 58.0379C64.8949 57.4882 66.5816 56.8458 67.7573 56.1524C68.3448 55.8059 68.8255 55.4346 69.1646 55.038C69.5044 54.6405 69.7258 54.1879 69.7258 53.6947V51.4972V50.3935L68.8961 51.1213C68.7307 51.2665 68.5506 51.4038 68.3355 51.5611C66.5849 52.7636 63.5095 53.7902 59.5491 54.5127C55.6018 55.2327 50.8335 55.6405 45.7496 55.6405C44.2121 55.6405 42.6996 55.6035 41.2367 55.5294L40.7114 55.5029V56.0288V59.2692ZM21.5469 49.2128C21.5469 48.3625 22.1533 47.5027 23.4859 46.6724C24.8021 45.8524 26.7094 45.1397 29.0266 44.5562C33.6532 43.3912 39.7856 42.7726 45.7496 42.7726C51.7082 42.7726 57.8407 43.3789 62.4687 44.5377C64.7866 45.1181 66.6946 45.8293 68.0112 46.6513C69.343 47.4826 69.9524 48.3485 69.9524 49.2128V53.6947C69.9524 54.545 69.3459 55.4049 68.0133 56.2351C66.6972 57.0551 64.7899 57.7679 62.4727 58.3513C57.8461 59.5164 51.7136 60.1349 45.7496 60.1349C39.7849 60.1349 33.6524 59.5286 29.026 58.3698C26.7088 57.7894 24.8021 57.0783 23.4864 56.2564C22.1558 55.4251 21.5469 54.5592 21.5469 53.6947V49.2128Z" fill="#000578" stroke="#013D3D"/>
<path d="M68.0514 42.4495L68.0231 42.4641L67.997 42.4822C66.3647 43.6111 63.3861 44.6144 59.4825 45.3317C55.5979 46.0455 50.8573 46.4657 45.7496 46.4657C40.642 46.4657 35.9014 46.0455 32.0168 45.3317C28.1131 44.6144 25.1345 43.6111 23.5023 42.4822L23.4761 42.4641L23.4478 42.4495C23.1013 42.2699 22.8023 42.0076 22.5771 41.6845L22.1739 41.9655L22.5771 41.6845C22.3583 41.3705 22.2155 41.0085 22.1606 40.6277C22.1766 40.0401 22.6506 39.3521 23.8161 38.6297C24.9747 37.9116 26.6844 37.2457 28.8414 36.679C33.1482 35.5474 39.1258 34.8393 45.7496 34.8393C52.3734 34.8393 58.3511 35.5474 62.6578 36.679C64.8149 37.2457 66.5246 37.9116 67.6831 38.6297C68.8487 39.3521 69.3226 40.0401 69.3387 40.6277C69.2838 41.0085 69.141 41.3705 68.9222 41.6845C68.6969 42.0076 68.398 42.2699 68.0514 42.4495Z" fill="white" stroke="#013D3D"/>
<mask id="path-9-inside-1_1219_1541" fill="white">
<path d="M45.7502 45.74C34.515 45.74 26.6896 43.8032 23.9053 41.8788C23.2552 41.4318 22.875 40.9849 22.875 40.6373C22.875 38.9115 30.9457 35.547 45.7502 35.547C60.5547 35.547 68.6254 38.9115 68.6254 40.6373C68.6254 40.9601 68.2329 41.407 67.5951 41.8788C64.8108 43.8032 56.9732 45.74 45.7502 45.74ZM45.7502 35.9319C31.1175 35.9319 23.2184 39.284 23.2184 40.6621C23.2184 40.749 23.3779 41.0966 24.1016 41.5933C26.8368 43.4804 34.5886 45.3178 45.7502 45.3178C56.9118 45.3178 64.6514 43.4183 67.3988 41.5933C68.1102 41.0966 68.2697 40.749 68.2697 40.6621C68.2697 39.284 60.383 35.9319 45.7502 35.9319Z"/>
</mask>
<path d="M45.7502 45.74C34.515 45.74 26.6896 43.8032 23.9053 41.8788C23.2552 41.4318 22.875 40.9849 22.875 40.6373C22.875 38.9115 30.9457 35.547 45.7502 35.547C60.5547 35.547 68.6254 38.9115 68.6254 40.6373C68.6254 40.9601 68.2329 41.407 67.5951 41.8788C64.8108 43.8032 56.9732 45.74 45.7502 45.74ZM45.7502 35.9319C31.1175 35.9319 23.2184 39.284 23.2184 40.6621C23.2184 40.749 23.3779 41.0966 24.1016 41.5933C26.8368 43.4804 34.5886 45.3178 45.7502 45.3178C56.9118 45.3178 64.6514 43.4183 67.3988 41.5933C68.1102 41.0966 68.2697 40.749 68.2697 40.6621C68.2697 39.284 60.383 35.9319 45.7502 35.9319Z" fill="#000578"/>
<path d="M23.9053 41.8788L24.4739 41.0562L24.4718 41.0548L23.9053 41.8788ZM67.5951 41.8788L68.1637 42.7014L68.1769 42.6923L68.1898 42.6828L67.5951 41.8788ZM24.1016 41.5933L24.6694 40.7701L24.6674 40.7687L24.1016 41.5933ZM67.3988 41.5933L67.9521 42.4262L67.9618 42.4198L67.9712 42.4132L67.3988 41.5933ZM45.7502 44.74C40.1874 44.74 35.4873 44.2603 31.8504 43.5496C28.1777 42.8319 25.6918 41.8979 24.4739 41.0562L23.3367 42.7014C24.9031 43.784 27.722 44.7807 31.4669 45.5125C35.2476 46.2513 40.0779 46.74 45.7502 46.74V44.74ZM24.4718 41.0548C24.1926 40.8628 24.0128 40.6981 23.9138 40.5797C23.8906 40.5519 23.8745 40.5298 23.8639 40.5138C23.8533 40.4976 23.8497 40.4899 23.8501 40.4908C23.8505 40.4917 23.8564 40.5043 23.8624 40.5281C23.8684 40.5522 23.875 40.5894 23.875 40.6373H21.875C21.875 41.1572 22.1444 41.5812 22.3789 41.8619C22.6326 42.1656 22.9679 42.4479 23.3387 42.7028L24.4718 41.0548ZM23.875 40.6373C23.875 40.8057 23.7895 40.8038 23.9683 40.6196C24.1269 40.4562 24.411 40.2378 24.8592 39.9845C25.7499 39.4814 27.136 38.9256 29.0245 38.4096C32.7904 37.3807 38.4182 36.547 45.7502 36.547V34.547C38.2777 34.547 32.4679 35.3955 28.4974 36.4803C26.5176 37.0212 24.9607 37.6301 23.8755 38.2432C23.3358 38.5481 22.8738 38.8757 22.5331 39.2266C22.2127 39.5567 21.875 40.0374 21.875 40.6373H23.875ZM45.7502 36.547C53.0822 36.547 58.71 37.3807 62.4759 38.4096C64.3644 38.9256 65.7505 39.4814 66.6412 39.9845C67.0894 40.2378 67.3735 40.4562 67.5321 40.6196C67.7109 40.8038 67.6254 40.8057 67.6254 40.6373H69.6254C69.6254 40.0374 69.2877 39.5567 68.9673 39.2266C68.6266 38.8757 68.1645 38.5481 67.6249 38.2432C66.5397 37.6301 64.9828 37.0212 63.003 36.4803C59.0325 35.3955 53.2227 34.547 45.7502 34.547V36.547ZM67.6254 40.6373C67.6254 40.5764 67.6346 40.5299 67.6423 40.5015C67.65 40.4733 67.6573 40.4586 67.6575 40.4582C67.6578 40.4576 67.6534 40.4664 67.641 40.4848C67.6286 40.5029 67.6104 40.5273 67.5847 40.5578C67.4753 40.6876 67.2843 40.8649 67.0004 41.0748L68.1898 42.6828C68.5437 42.4209 68.8678 42.1388 69.1141 41.8465C69.3299 41.5905 69.6254 41.1655 69.6254 40.6373H67.6254ZM67.0265 41.0562C65.8088 41.8978 63.32 42.8318 59.6454 43.5496C56.007 44.2603 51.3069 44.74 45.7502 44.74V46.74C51.4165 46.74 56.2467 46.2513 60.0289 45.5125C63.7749 44.7807 66.5971 43.7842 68.1637 42.7014L67.0265 41.0562ZM45.7502 34.9319C38.3617 34.9319 32.6409 35.7777 28.7403 36.8137C26.7949 37.3304 25.2739 37.9019 24.217 38.4559C23.6925 38.7309 23.2442 39.0212 22.9117 39.3251C22.6263 39.586 22.2184 40.0434 22.2184 40.6621H24.2184C24.2184 40.9363 24.0574 40.9875 24.2611 40.8013C24.4177 40.6581 24.7009 40.4604 25.1456 40.2273C26.027 39.7653 27.3953 39.2403 29.2537 38.7467C32.9609 37.7621 38.506 36.9319 45.7502 36.9319V34.9319ZM22.2184 40.6621C22.2184 40.9171 22.3109 41.1228 22.36 41.2212C22.4255 41.3522 22.5116 41.4809 22.6136 41.6059C22.8179 41.8566 23.1157 42.1295 23.5357 42.4178L24.6674 40.7687C24.3637 40.5604 24.22 40.4112 24.1637 40.3421C24.1353 40.3073 24.1364 40.3017 24.1493 40.3276C24.1557 40.3405 24.1692 40.3693 24.1826 40.413C24.1931 40.4473 24.2184 40.5373 24.2184 40.6621H22.2184ZM23.5337 42.4164C25.0796 43.4829 27.8725 44.4444 31.5801 45.1458C35.3258 45.8544 40.1174 46.3178 45.7502 46.3178V44.3178C40.2214 44.3178 35.5562 43.8625 31.9519 43.1806C28.3093 42.4915 25.8587 41.5907 24.6694 40.7701L23.5337 42.4164ZM45.7502 46.3178C51.3852 46.3178 56.1742 45.8385 59.9178 45.1221C63.6266 44.4123 66.4085 43.4516 67.9521 42.4262L66.8455 40.7603C65.6417 41.5599 63.1801 42.4615 59.5419 43.1578C55.9384 43.8474 51.2768 44.3178 45.7502 44.3178V46.3178ZM67.9712 42.4132C68.3848 42.1245 68.6783 41.8515 68.8797 41.6014C68.9802 41.4768 69.0651 41.3487 69.1296 41.2186C69.1777 41.1215 69.2697 40.9163 69.2697 40.6621H67.2697C67.2697 40.5375 67.2949 40.4478 67.3052 40.4142C67.3184 40.371 67.3316 40.3426 67.3377 40.3302C67.3501 40.3053 67.3507 40.3115 67.3223 40.3467C67.2662 40.4163 67.1242 40.5654 66.8264 40.7733L67.9712 42.4132ZM69.2697 40.6621C69.2697 40.044 68.8628 39.5867 68.5774 39.3255C68.2452 39.0215 67.7974 38.7312 67.2735 38.4562C66.2176 37.902 64.6981 37.3305 62.7541 36.8138C58.8565 35.7777 53.1387 34.9319 45.7502 34.9319V36.9319C52.9944 36.9319 58.5364 37.7621 62.2403 38.7466C64.0972 39.2402 65.4639 39.7651 66.344 40.2271C66.7881 40.4601 67.0707 40.6578 67.227 40.8008C67.4301 40.9867 67.2697 40.9357 67.2697 40.6621H69.2697Z" fill="#013D3D" mask="url(#path-9-inside-1_1219_1541)"/>
<path d="M68.5402 43.3233C68.8344 43.1674 69.1033 42.9693 69.3391 42.7363V45.1417C69.3391 45.7361 68.8692 46.4355 67.6831 47.1706C66.5246 47.8887 64.8149 48.5546 62.6578 49.1214C58.3511 50.253 52.3734 50.961 45.7496 50.961C39.1258 50.961 33.1482 50.253 28.8414 49.1214C26.6844 48.5546 24.9747 47.8887 23.8161 47.1706C22.63 46.4355 22.1602 45.7361 22.1602 45.1417V42.7363C22.396 42.9693 22.6649 43.1674 22.9591 43.3233C24.7774 44.5702 27.9204 45.5968 31.836 46.3163C35.7891 47.0426 40.591 47.4667 45.7496 47.4667C50.9082 47.4667 55.7102 47.0426 59.6632 46.3163C63.5788 45.5968 66.7219 44.5702 68.5402 43.3233Z" fill="white" stroke="#013D3D"/>
<path d="M68.2213 42.7974L68.2214 42.7975L68.2276 42.793C68.5312 42.5773 68.891 42.2887 69.1795 41.9483C69.4618 41.6152 69.7258 41.1735 69.7258 40.6598C69.7258 40.1666 69.5044 39.714 69.1646 39.3165C68.8255 38.9199 68.3448 38.5486 67.7573 38.2021C66.5816 37.5087 64.8949 36.8663 62.8031 36.3166C58.6126 35.2153 52.6993 34.4611 45.7496 34.4611C38.8003 34.4611 32.887 35.209 28.6965 36.3072C26.6047 36.8553 24.9177 37.497 23.7416 38.1918C23.1539 38.539 22.673 38.9116 22.3338 39.3103C21.9938 39.7101 21.7734 40.1647 21.7734 40.6598C21.7734 41.1711 22.0319 41.6121 22.3142 41.9472C22.6019 42.2888 22.9629 42.5783 23.2757 42.7959L23.2772 42.7969C25.0876 44.047 28.266 45.0513 32.1667 45.7472C36.088 46.4468 40.8063 46.846 45.7496 46.846C50.693 46.846 55.4082 46.4468 59.328 45.7472C63.2274 45.0512 66.4052 44.0469 68.2213 42.7974ZM26.0729 44.7692V44.422L25.7476 44.3007C25.3 44.1338 24.9104 43.959 24.5367 43.7413L23.785 43.3032V44.1733V47.2647V47.5622L24.0464 47.7041C24.4807 47.9398 24.9275 48.1509 25.385 48.3364L26.0729 48.6153V47.873V44.7692ZM26.9642 44.7317L26.2994 44.4997V45.2038V48.3821V48.7462L26.6459 48.8579L27.7621 49.218L28.4156 49.4288V48.7421V45.5514V45.1772L28.0565 45.0717C27.6739 44.9592 27.306 44.851 26.9642 44.7317ZM29.2547 45.387L28.6421 45.2455V45.8742V49.0773V49.475L29.0296 49.5645L30.158 49.8252L30.7705 49.9667V49.338V46.1349V45.7373L30.3831 45.6477L29.2547 45.387ZM31.5838 45.8908L30.9971 45.7875V46.3832V49.5988V50.0139L31.4052 50.0903L32.5336 50.3013L33.1255 50.412V49.8098V46.5819V46.1622L32.7122 46.0894L31.5838 45.8908ZM33.9222 46.273L33.3521 46.1922V46.7681V50.0085V50.447L33.7868 50.5042L35.0134 50.6656L35.5786 50.74V50.1699V46.9419V46.5078L35.1488 46.4468L33.9222 46.273ZM36.3555 46.5934L35.8052 46.5377V47.0909V50.3313V50.7832L36.2548 50.8287L37.4814 50.9529L38.0317 51.0086V50.4554V47.215V46.7631L37.5821 46.7176L36.3555 46.5934ZM21.7734 45.1417V45.1748L21.7778 45.2076C21.8214 45.5358 21.9319 45.8515 22.1025 46.1348C22.2731 46.4181 22.5002 46.6629 22.7697 46.8535L23.5584 47.4113V46.4453V43.4904V43.2091L23.318 43.0631L23.1471 42.9593C22.9584 42.8279 22.7774 42.6854 22.605 42.5327L21.7734 41.796V42.9069V45.1417ZM38.3074 50.5672V51.0285L38.7672 51.0656C40.9393 51.2404 43.2832 51.3403 45.7496 51.3403C52.6993 51.3403 58.6126 50.5861 62.8031 49.4849C64.8949 48.9352 66.5816 48.2928 67.7573 47.5994C68.3448 47.2529 68.8255 46.8816 69.1646 46.4849C69.5044 46.0875 69.7258 45.6348 69.7258 45.1417V42.9442V41.8404L68.8961 42.5683C68.7307 42.7134 68.5506 42.8508 68.3355 43.0081C66.5849 44.2106 63.5095 45.2372 59.5491 45.9596C55.6018 46.6796 50.8335 47.0875 45.7496 47.0875C43.3593 47.0875 41.0419 46.9887 38.8466 46.8159L38.3074 46.7735V47.3144V50.5672ZM21.5469 40.6598C21.5469 39.8095 22.1533 38.9496 23.4859 38.1194C24.8021 37.2994 26.7094 36.5866 29.0266 36.0031C33.6532 34.8381 39.7856 34.2196 45.7496 34.2196C51.7082 34.2196 57.8407 34.8258 62.4687 35.9847C64.7866 36.5651 66.6946 37.2763 68.0112 38.0982C69.343 38.9296 69.9524 39.7955 69.9524 40.6598V45.1417C69.9524 45.992 69.3459 46.8518 68.0133 47.682C66.6972 48.502 64.7899 49.2148 62.4727 49.7983C57.8461 50.9633 51.7136 51.5818 45.7496 51.5818C39.7849 51.5818 33.6524 50.9756 29.026 49.8168C26.7088 49.2364 24.8021 48.5252 23.4864 47.7033C22.1558 46.8721 21.5469 46.0062 21.5469 45.1417V40.6598Z" fill="#000578" stroke="#013D3D"/>
<path d="M83.8011 47.7127C83.8011 60.0588 73.915 70.0569 61.7326 70.0569C49.5502 70.0569 39.6641 60.0588 39.6641 47.7127C39.6641 35.3667 49.5502 25.3686 61.7326 25.3686C73.915 25.3686 83.8011 35.3667 83.8011 47.7127Z" fill="white" stroke="#013D3D"/>
<path d="M62.2957 25.0341V24.9907L61.7959 24.9904C57.3528 24.9879 53.0093 26.3192 49.3147 28.8154C45.6203 31.3114 42.741 34.8598 41.0402 39.0111C39.3395 43.1623 38.8933 47.7304 39.7579 52.138C40.6224 56.5455 42.7591 60.5954 45.8985 63.775C49.0381 66.9546 53.0394 69.1211 57.3968 69.9994C61.7543 70.8777 66.2711 70.4281 70.3757 68.7078C74.4803 66.9876 77.9877 64.0742 80.455 60.3372C82.9221 56.6002 84.2387 52.2072 84.2387 47.7138V47.7124C84.2221 41.6987 81.853 35.9353 77.6478 31.6836C73.5603 27.5507 68.0613 25.1733 62.2957 25.0341ZM61.7949 70.6787C57.3099 70.681 52.9244 69.337 49.1931 66.8159C45.4616 64.2946 42.5517 60.7092 40.8324 56.5125C39.1131 52.3156 38.6619 47.6966 39.5362 43.2399C40.4104 38.7831 42.5707 34.6898 45.7428 31.4773C48.9148 28.2648 52.9561 26.0774 57.3551 25.1908C61.7541 24.3042 66.3141 24.7579 70.4586 26.495C74.6032 28.232 78.1467 31.1746 80.6402 34.9515C83.1338 38.7284 84.4651 43.1695 84.4652 47.7132C84.4589 53.8019 82.0673 59.6384 77.8168 63.943C73.5665 68.2475 67.8046 70.669 61.7949 70.6787Z" fill="#000578" stroke="#013D3D"/>
<mask id="path-15-inside-2_1219_1541" fill="white">
<path d="M61.7919 67.9137C57.845 67.9137 53.9867 66.729 50.705 64.5095C47.4232 62.2899 44.8654 59.1351 43.355 55.4441C41.8446 51.7531 41.4494 47.6916 42.2194 43.7733C42.9894 39.8549 44.89 36.2557 47.6809 33.4307C50.4718 30.6057 54.0276 28.6819 57.8987 27.9025C61.7698 27.1231 65.7823 27.5231 69.4288 29.052C73.0752 30.5808 76.1919 33.1699 78.3847 36.4917C80.5775 39.8135 81.7479 43.7189 81.7479 47.714C81.7447 53.0703 79.6411 58.2063 75.8994 61.9938C72.1576 65.7812 67.0836 67.9104 61.7919 67.9137ZM61.7919 27.862C57.9105 27.862 54.1162 29.027 50.889 31.2098C47.6617 33.3925 45.1463 36.4949 43.661 40.1247C42.1756 43.7544 41.787 47.7485 42.5442 51.6018C43.3014 55.4552 45.1705 58.9947 47.9151 61.7728C50.6596 64.5509 54.1565 66.4428 57.9633 67.2093C61.7701 67.9757 65.716 67.5823 69.302 66.0789C72.888 64.5754 75.953 62.0293 78.1094 58.7626C80.2658 55.4959 81.4167 51.6553 81.4167 47.7265C81.4167 42.4581 79.3492 37.4055 75.6688 33.6802C71.9884 29.9548 66.9968 27.862 61.7919 27.862Z"/>
</mask>
<path d="M61.7919 67.9137C57.845 67.9137 53.9867 66.729 50.705 64.5095C47.4232 62.2899 44.8654 59.1351 43.355 55.4441C41.8446 51.7531 41.4494 47.6916 42.2194 43.7733C42.9894 39.8549 44.89 36.2557 47.6809 33.4307C50.4718 30.6057 54.0276 28.6819 57.8987 27.9025C61.7698 27.1231 65.7823 27.5231 69.4288 29.052C73.0752 30.5808 76.1919 33.1699 78.3847 36.4917C80.5775 39.8135 81.7479 43.7189 81.7479 47.714C81.7447 53.0703 79.6411 58.2063 75.8994 61.9938C72.1576 65.7812 67.0836 67.9104 61.7919 67.9137ZM61.7919 27.862C57.9105 27.862 54.1162 29.027 50.889 31.2098C47.6617 33.3925 45.1463 36.4949 43.661 40.1247C42.1756 43.7544 41.787 47.7485 42.5442 51.6018C43.3014 55.4552 45.1705 58.9947 47.9151 61.7728C50.6596 64.5509 54.1565 66.4428 57.9633 67.2093C61.7701 67.9757 65.716 67.5823 69.302 66.0789C72.888 64.5754 75.953 62.0293 78.1094 58.7626C80.2658 55.4959 81.4167 51.6553 81.4167 47.7265C81.4167 42.4581 79.3492 37.4055 75.6688 33.6802C71.9884 29.9548 66.9968 27.862 61.7919 27.862Z" fill="#000578"/>
<path d="M81.7479 47.714L82.7479 47.7146V47.714H81.7479ZM61.7919 66.9137C58.0455 66.9137 54.3822 65.7893 51.2652 63.6811L50.1447 65.3378C53.5912 67.6688 57.6445 68.9137 61.7919 68.9137V66.9137ZM51.2652 63.6811C48.1481 61.5729 45.7167 58.5751 44.2805 55.0654L42.4295 55.8229C44.0141 59.6952 46.6984 63.0069 50.1447 65.3378L51.2652 63.6811ZM44.2805 55.0654C42.8442 51.5556 42.4683 47.6929 43.2006 43.9661L41.2382 43.5805C40.4305 47.6904 40.8449 51.9506 42.4295 55.8229L44.2805 55.0654ZM43.2006 43.9661C43.933 40.2394 45.7403 36.8179 48.3923 34.1335L46.9695 32.7279C44.0397 35.6935 42.0458 39.4704 41.2382 43.5805L43.2006 43.9661ZM48.3923 34.1335C51.0441 31.4493 54.4213 29.6227 58.0961 28.8828L57.7013 26.9222C53.6339 27.7411 49.8995 29.7622 46.9695 32.7279L48.3923 34.1335ZM58.0961 28.8828C61.7708 28.1429 65.5798 28.5226 69.0421 29.9742L69.8154 28.1297C65.9847 26.5236 61.7688 26.1032 57.7013 26.9222L58.0961 28.8828ZM69.0421 29.9742C72.5045 31.4259 75.4658 33.885 77.5502 37.0426L79.2193 35.9408C76.9181 32.4547 73.646 29.7358 69.8154 28.1297L69.0421 29.9742ZM77.5502 37.0426C79.6346 40.2003 80.7479 43.914 80.7479 47.714H82.7479C82.7479 43.5238 81.5204 39.4267 79.2193 35.9408L77.5502 37.0426ZM80.7479 47.7134C80.7448 52.8086 78.7437 57.6918 75.188 61.291L76.6107 62.6966C80.5385 58.7208 82.7445 53.332 82.7479 47.7146L80.7479 47.7134ZM75.188 61.291C71.6326 64.8897 66.814 66.9106 61.7913 66.9137L61.7925 68.9137C67.3532 68.9103 72.6826 66.6727 76.6107 62.6966L75.188 61.291ZM61.7919 26.862C57.71 26.862 53.7208 28.0873 50.3287 30.3814L51.4492 32.0381C54.5117 29.9668 58.111 28.862 61.7919 28.862V26.862ZM50.3287 30.3814C46.9368 32.6755 44.295 35.9348 42.7355 39.7459L44.5865 40.5034C45.9976 37.055 48.3865 34.1095 51.4492 32.0381L50.3287 30.3814ZM42.7355 39.7459C41.1759 43.5569 40.7681 47.7497 41.563 51.7947L43.5254 51.409C42.8058 47.7473 43.1753 43.9519 44.5865 40.5034L42.7355 39.7459ZM41.563 51.7947C42.3579 55.8397 44.3202 59.5569 47.2037 62.4756L48.6265 61.07C46.0208 58.4325 44.245 55.0707 43.5254 51.409L41.563 51.7947ZM47.2037 62.4756C50.0873 65.3944 53.7628 67.3836 57.7659 68.1896L58.1607 66.2289C54.5501 65.502 51.232 63.7073 48.6265 61.07L47.2037 62.4756ZM57.7659 68.1896C61.7691 68.9956 65.9185 68.5818 69.6887 67.0011L68.9153 65.1566C65.5136 66.5829 61.7711 66.9559 58.1607 66.2289L57.7659 68.1896ZM69.6887 67.0011C73.4587 65.4204 76.6791 62.7444 78.944 59.3135L77.2748 58.2117C75.2268 61.3141 72.3172 63.7303 68.9153 65.1566L69.6887 67.0011ZM78.944 59.3135C81.2087 55.8827 82.4167 51.8504 82.4167 47.7265H80.4167C80.4167 51.4602 79.3229 55.1091 77.2748 58.2117L78.944 59.3135ZM82.4167 47.7265C82.4167 42.1968 80.2467 36.8911 76.3802 32.9774L74.9574 34.383C78.4516 37.9198 80.4167 42.7194 80.4167 47.7265H82.4167ZM76.3802 32.9774C72.5132 29.0632 67.2659 26.862 61.7919 26.862V28.862C66.7276 28.862 71.4636 30.8465 74.9574 34.383L76.3802 32.9774Z" fill="#013D3D" mask="url(#path-15-inside-2_1219_1541)"/>
<path d="M56.5481 44.149V45.772H54.9355V44.1616C54.963 43.5816 54.7648 43.0127 54.3816 42.5772L54.3752 42.57L54.3686 42.563C54.1746 42.3589 53.9397 42.1984 53.6792 42.0923C53.4251 41.9889 53.1526 41.9397 52.8786 41.9478C52.6053 41.9388 52.3332 41.9881 52.08 42.0923L52.2703 42.5547L52.08 42.0923C51.8204 42.1991 51.587 42.3612 51.3956 42.567L51.3955 42.5669L51.3897 42.5734C51.0003 43.0069 50.7964 43.577 50.8201 44.1598V54.1822C50.7964 54.765 51.0003 55.3351 51.3897 55.7686L51.3896 55.7687L51.3956 55.7751C51.587 55.9809 51.8204 56.1429 52.08 56.2497C52.3331 56.3539 52.6053 56.4032 52.8786 56.3942C53.1526 56.4024 53.4252 56.3531 53.6792 56.2497C53.9397 56.1436 54.1746 55.9831 54.3686 55.779L54.3752 55.7721L54.3816 55.7648C54.7648 55.3293 54.963 54.7604 54.9355 54.1804V52.0982H56.5972V54.1897C56.587 54.9504 56.3573 55.691 55.937 56.3203C55.5162 56.9505 54.923 57.4412 54.2312 57.733C53.5395 58.0247 52.7789 58.105 52.0431 57.9642C51.4994 57.8602 50.9863 57.6387 50.5377 57.3172L50.545 57.3116L50.1409 56.9065C49.7857 56.5503 49.5062 56.1237 49.3201 55.6529C49.1341 55.1821 49.0455 54.6774 49.0601 54.1702L49.0604 54.163V54.1558V44.149C49.0604 43.1404 49.4563 42.1743 50.1591 41.4629C50.8617 40.7517 51.8133 40.3533 52.8043 40.3533C53.7952 40.3533 54.7468 40.7517 55.4494 41.4629C56.1522 42.1743 56.5481 43.1404 56.5481 44.149Z" fill="#000578" stroke="#013D3D"/>
<path d="M59.925 54.0904L59.9254 54.0803V54.0701V44.1379V44.1277L59.925 44.1176C59.9039 43.599 59.9894 43.0817 60.1758 42.5985C60.3605 42.1201 60.6401 41.6856 60.997 41.3218C61.7702 40.6332 62.7638 40.254 63.7919 40.254C64.82 40.254 65.8137 40.6332 66.5868 41.3218C66.9437 41.6855 67.2233 42.12 67.408 42.5985C67.5945 43.0817 67.6799 43.599 67.6589 44.1176L67.6585 44.1277V44.1379V54.0701V54.0803L67.6589 54.0904C67.6799 54.609 67.5945 55.1263 67.408 55.6095C67.2233 56.088 66.9437 56.5224 66.5869 56.8862C65.8137 57.5748 64.82 57.954 63.7919 57.954C62.7638 57.954 61.7702 57.5748 60.997 56.8862C60.6401 56.5224 60.3605 56.0879 60.1758 55.6095C59.9894 55.1263 59.9039 54.609 59.925 54.0904ZM66.0573 55.152L65.7822 55.0824C65.9173 54.7671 65.9834 54.4231 65.9723 54.0741V44.1669C66.0102 43.5621 65.8151 42.9647 65.4262 42.5007L65.4061 42.4766L65.3831 42.4553C64.9564 42.0595 64.3975 41.839 63.8165 41.839C63.2354 41.839 62.6765 42.0595 62.2498 42.4553L62.2268 42.4766L62.2067 42.5007C61.8178 42.9647 61.6227 43.5621 61.6606 44.1669V54.066C61.6227 54.6708 61.8178 55.2681 62.2067 55.7321L62.2268 55.7562L62.2498 55.7775C62.6765 56.1734 63.2354 56.3938 63.8165 56.3938C64.3975 56.3938 64.9564 56.1734 65.3831 55.7775L66.0573 55.152Z" fill="#000578" stroke="#013D3D"/>
<path d="M71.2939 55.5033L70.8134 56.2691H71.7174H74.3452V56.7838H70.3408V56.0355L72.5682 52.4378C72.9298 51.8883 73.239 51.3053 73.4916 50.6967L73.4946 50.6894L73.4974 50.6821C73.6666 50.2353 73.7564 49.7619 73.7627 49.2838C73.79 48.8673 73.6681 48.4539 73.4179 48.1196L73.4071 48.1052L73.3953 48.0916C73.257 47.9323 73.0841 47.8067 72.8893 47.7252C72.7049 47.6479 72.5059 47.6122 72.3063 47.6206C72.1074 47.6122 71.9091 47.6484 71.7257 47.7266C71.5321 47.8091 71.3608 47.9359 71.2251 48.0965L71.2156 48.1078L71.2067 48.1196C70.9572 48.4531 70.8352 48.8653 70.8617 49.2807V49.3842H70.3408V49.3733L70.34 49.359C70.305 48.7499 70.4983 48.1508 70.8794 47.6812C71.0606 47.49 71.2799 47.3408 71.5224 47.2436C71.7696 47.1446 72.035 47.1018 72.3 47.1181L72.3291 47.1199L72.3583 47.1183C72.6261 47.1035 72.8941 47.1448 73.1456 47.2399C73.3931 47.3334 73.6196 47.477 73.8112 47.6623C73.9958 47.8659 74.1386 48.1052 74.2308 48.3663C74.3244 48.6316 74.3637 48.9137 74.3461 49.1951L74.3451 49.2114L74.3452 49.2277C74.3467 49.7376 74.2545 50.2432 74.0734 50.7187C73.7853 51.4246 73.4345 52.1025 73.0253 52.744L73.0253 52.744L73.0233 52.7471L71.2939 55.5033Z" fill="#000578" stroke="#013D3D"/>
</svg>
