<svg width="23" height="23" viewBox="0 0 23 23" fill="none" xmlns="http://www.w3.org/2000/svg">
<path d="M21.5625 17.9688L20.5462 16.9524L18.6875 18.8111V12.9375H17.25V18.8111L15.3913 16.9524L14.375 17.9688L17.9688 21.5625L21.5625 17.9688Z" fill="#474747"/>
<path d="M12.9375 20.1252H5.75V2.87524H11.5V7.18774C11.5011 7.56864 11.653 7.93362 11.9223 8.20295C12.1916 8.47229 12.5566 8.62411 12.9375 8.62524H17.25V10.7815H18.6875V7.18774C18.69 7.09328 18.6721 6.99939 18.6349 6.91254C18.5976 6.82569 18.542 6.74793 18.4719 6.68462L13.4406 1.65337C13.3773 1.58318 13.2996 1.52755 13.2127 1.49033C13.1259 1.4531 13.032 1.43516 12.9375 1.43774H5.75C5.3691 1.43888 5.00413 1.5907 4.73479 1.86004C4.46545 2.12937 4.31364 2.49435 4.3125 2.87524V20.1252C4.31364 20.5061 4.46545 20.8711 4.73479 21.1405C5.00413 21.4098 5.3691 21.5616 5.75 21.5627H12.9375V20.1252ZM12.9375 3.16274L16.9625 7.18774H12.9375V3.16274Z" fill="#474747"/>
</svg>
