<svg width="25" height="25" viewBox="0 0 25 25" fill="none" xmlns="http://www.w3.org/2000/svg">
<path d="M9.55585 15.4212V23.9196C9.55417 23.9488 9.55873 23.9779 9.56924 24.0052C9.57976 24.0324 9.59598 24.0572 9.61686 24.0778C9.63774 24.0985 9.66279 24.1145 9.69038 24.1249C9.71796 24.1353 9.74747 24.1398 9.77694 24.1381H12.9303C12.9603 24.1397 12.9903 24.1352 13.0185 24.1249C13.0467 24.1146 13.0724 24.0988 13.0942 24.0783C13.116 24.0579 13.1333 24.0333 13.1451 24.006C13.157 23.9787 13.1631 23.9493 13.163 23.9196V15.2832H15.4902C15.5469 15.2832 15.6014 15.2618 15.6426 15.2233C15.6837 15.1848 15.7083 15.1321 15.7113 15.0762L15.9324 12.4772C15.9357 12.4466 15.9324 12.4157 15.9227 12.3865C15.9131 12.3572 15.8973 12.3304 15.8765 12.3076C15.8556 12.2848 15.8301 12.2666 15.8016 12.2542C15.7732 12.2418 15.7424 12.2355 15.7113 12.2357H13.1979V10.3842C13.1964 10.2811 13.2157 10.1787 13.255 10.0831C13.2942 9.98751 13.3524 9.90069 13.4262 9.82776C13.5 9.75484 13.5878 9.69729 13.6845 9.65854C13.7812 9.61979 13.8848 9.60063 13.9892 9.60218H15.7695C15.8292 9.60225 15.8867 9.5796 15.9301 9.53893C15.9734 9.49825 15.9992 9.44266 16.0022 9.38368V6.77319C15.9992 6.7142 15.9734 6.65861 15.9301 6.61794C15.8867 6.57726 15.8292 6.55461 15.7695 6.55469H12.7558C11.9071 6.55469 11.0932 6.88788 10.4931 7.48096C9.89299 8.07404 9.55585 8.87843 9.55585 9.71718V12.2357H7.95009C7.89146 12.2357 7.83522 12.2587 7.79376 12.2997C7.7523 12.3406 7.729 12.3962 7.729 12.4542V15.0532C7.72893 15.1122 7.75184 15.169 7.793 15.2119C7.83416 15.2547 7.89041 15.2802 7.95009 15.2832H9.55585V15.4212Z" fill="#013D3D"/>
<circle cx="12.4098" cy="12.4098" r="11.4098" stroke="#013D3D" stroke-width="2"/>
</svg>
