<svg width="524" height="166" viewBox="0 0 524 166" fill="none" xmlns="http://www.w3.org/2000/svg">
<g clip-path="url(#clip0_437_947)">
<path d="M89.2524 64.2636L83.2058 60.6621C79.7727 58.7588 76.0531 57.4234 72.1917 56.7079C76.9878 50.9235 80.2847 44.0509 81.7918 36.6955L82.8709 30.5693L76.7685 31.8317C70.8415 33.3162 65.3315 36.1288 60.6566 40.0557C60.3303 31.954 58.2685 24.016 54.61 16.776L50.889 10L47.168 16.776C43.4992 24.0386 41.4371 32.003 41.1214 40.1299C36.4282 36.1616 30.8839 33.3225 24.9165 31.8317L18.8141 30.5693L19.8932 36.6955C21.4108 44.0509 24.7136 50.9225 29.5119 56.7079C25.6494 57.4192 21.9291 58.7549 18.4978 60.6621L12.4512 64.2636L18.4978 67.8837C22.9118 70.3188 27.7829 71.8168 32.805 72.2834C32.4316 72.8839 32.09 73.5036 31.7817 74.1398L28.6375 80.9158L36.0795 80.099C39.8747 79.5514 43.474 78.0714 46.5541 75.7921C47.9595 74.6994 49.2387 73.4541 50.3681 72.0792L50.8704 72.9889L51.3355 72.1349C52.4388 73.4687 53.6868 74.6766 55.0565 75.7364C58.135 78.0184 61.7351 79.4987 65.5311 80.0433L72.9731 80.8602L69.8475 74.0842C69.8475 73.8985 69.401 73.1745 68.8056 72.2277C73.8339 71.7631 78.7115 70.2651 83.1314 67.828L89.2524 64.2636Z" fill="#474747"/>
<path d="M42.8526 106.776C44.1499 105.03 45.1842 103.103 45.9224 101.058L48.0806 94.3564L41.1595 95.6188C39.7732 95.906 38.4203 96.3353 37.1223 96.8997C36.6229 93.3997 35.4544 90.028 33.6803 86.9678L30.4431 81.6398L26.7221 86.6151C25.2423 88.6869 24.1169 90.9891 23.3918 93.4282C20.6188 91.0741 17.4759 89.1925 14.0893 87.8589L6.83337 85.1856L8.52643 92.7228C9.43007 96.2759 10.9135 99.6564 12.9172 102.729C10.3838 103.117 7.93216 103.92 5.66127 105.105L0.191406 108.094L5.0473 111.993C7.84741 114.142 11.0379 115.731 14.4428 116.671C13.6931 117.879 13.0697 119.16 12.5823 120.495L10.4055 127.178L17.3452 125.934C19.482 125.481 21.5389 124.711 23.4476 123.651L25.1778 129.554L30.2384 123.985C31.846 122.122 32.9648 119.889 33.4943 117.488C33.4943 117.265 33.4943 117.023 33.5873 116.801L35.0199 117.321L34.7036 115.873H35.5408C37.9956 115.667 40.3609 114.857 42.4246 113.515L48.5643 109.245L42.8526 106.776Z" fill="#474747"/>
<path d="M56.4713 41.5223C56.3444 49.4246 54.4368 57.1971 50.8898 64.2636C47.235 57.2379 45.3271 49.4381 45.3271 41.5223C45.3271 33.6064 47.235 25.8067 50.8898 18.7809C54.4332 25.8488 56.3406 33.6205 56.4713 41.5223V41.5223Z" fill="#9DDEBF"/>
<path d="M68.6014 54.4059C64.0071 59.2157 58.1447 62.6327 51.6895 64.2636C53.099 57.4513 56.209 51.1042 60.7315 45.8106C65.3257 41.0009 71.1881 37.5838 77.6434 35.9529C76.2339 42.7652 73.1238 49.1123 68.6014 54.4059Z" fill="#9DDEBF"/>
<path d="M66.3688 68.1807C61.2301 68.0795 56.1928 66.7353 51.6895 64.2636C56.1509 61.6977 61.21 60.3471 66.3595 60.3471C71.509 60.3471 76.568 61.6977 81.0295 64.2636C76.5319 66.7331 71.5012 68.0772 66.3688 68.1807Z" fill="#9DDEBF"/>
<path d="M57.6803 72.4505C55.1697 70.4804 53.1244 67.9833 51.6895 65.1362C54.7341 65.5927 57.6209 66.7844 60.0989 68.6077C62.6137 70.5734 64.6599 73.0716 66.0897 75.9221C63.045 75.4655 60.1582 74.2738 57.6803 72.4505V72.4505Z" fill="#9DDEBF"/>
<path d="M33.122 54.4059C37.7163 59.2157 43.5786 62.6327 50.0339 64.2636C48.6337 57.4481 45.5225 51.0989 40.9919 45.8106C36.4027 41.0039 30.5472 37.587 24.0986 35.9529C25.4966 42.7655 28.6009 49.1139 33.122 54.4059Z" fill="#9DDEBF"/>
<path d="M35.3727 68.1807C40.5051 68.0772 45.5358 66.7331 50.0334 64.2636C45.5719 61.6977 40.5129 60.3471 35.3634 60.3471C30.2139 60.3471 25.1548 61.6977 20.6934 64.2636C25.1967 66.7353 30.234 68.0795 35.3727 68.1807V68.1807Z" fill="#9DDEBF"/>
<path d="M44.0618 72.4505C46.5639 70.4767 48.6023 67.9801 50.034 65.1362C46.9901 65.5956 44.104 66.787 41.6245 68.6077C39.1182 70.5771 37.0788 73.0748 35.6523 75.9221C38.6962 75.4626 41.5823 74.2712 44.0618 72.4505V72.4505Z" fill="#9DDEBF"/>
<path d="M23.2985 99.2203C26.1481 102.568 28.2024 106.516 29.3079 110.767C25.1895 109.172 21.5173 106.61 18.6024 103.297C15.6876 99.9849 13.6161 96.0201 12.5635 91.7389C16.6619 93.3922 20.332 95.95 23.2985 99.2203V99.2203Z" fill="#9DDEBF"/>
<path d="M33.1034 100.186C32.9495 103.872 31.7494 107.438 29.6429 110.47C27.7368 107.109 26.7069 103.323 26.6475 99.4616C26.8039 95.7703 28.0036 92.1984 30.108 89.1584C32.0223 92.5233 33.0527 96.3167 33.1034 100.186V100.186Z" fill="#9DDEBF"/>
<path d="M37.2148 106.757C35.0281 108.587 32.43 109.861 29.6426 110.47C30.5611 107.766 32.1783 105.352 34.3311 103.471C36.4838 101.591 39.0958 100.31 41.9032 99.7587C40.9342 102.437 39.3249 104.84 37.2148 106.757Z" fill="#9DDEBF"/>
<path d="M35.1498 111.714C33.3763 111.806 31.6044 111.508 29.959 110.842C31.3949 109.915 33.0367 109.354 34.7405 109.208C36.5156 109.117 38.2886 109.421 39.9312 110.099C38.4916 111.015 36.8509 111.569 35.1498 111.714V111.714Z" fill="#9DDEBF"/>
<path d="M18.257 113.125C21.9444 113.462 25.6523 112.754 28.9548 111.083C25.8681 108.746 22.2392 107.226 18.4058 106.665C14.7224 106.33 11.0194 107.044 7.72656 108.725C10.8086 111.055 14.4311 112.568 18.257 113.125V113.125Z" fill="#9DDEBF"/>
<path d="M24.247 118.082C26.3553 116.159 27.9697 113.759 28.954 111.083C26.1466 111.634 23.5346 112.915 21.3818 114.796C19.2291 116.676 17.6118 119.091 16.6934 121.795C19.4745 121.183 22.066 119.909 24.247 118.082Z" fill="#9DDEBF"/>
<path d="M29.4566 116.671C29.7774 114.927 29.7139 113.134 29.2705 111.417C28.1643 112.723 27.3919 114.278 27.0193 115.947C26.6988 117.685 26.7623 119.471 27.2054 121.182C28.3083 119.881 29.0805 118.333 29.4566 116.671V116.671Z" fill="#9DDEBF"/>
<path d="M53.8481 59.1584H47.8945V172.976H53.8481V59.1584Z" fill="#9DDEBF"/>
<path d="M50.4889 134.3L53.707 130.747L26.6641 106.365L23.446 109.919L50.4889 134.3Z" fill="#9DDEBF"/>
<path d="M98.6861 130.761L93.3278 127.568C91.1055 126.335 88.6999 125.464 86.2021 124.988C88.269 121.979 89.8335 118.656 90.8348 115.149L92.6953 107.723L85.3835 110.192C81.9456 111.462 78.7402 113.287 75.895 115.594C75.2301 113.128 74.1614 110.788 72.7322 108.67L69.1228 103.602L65.7367 108.818C63.8794 111.825 62.6163 115.158 62.0157 118.639C60.7311 118.05 59.3912 117.59 58.0156 117.265L51.1132 115.817L53.1039 122.574C53.776 124.645 54.7542 126.603 56.0063 128.385L50.4248 130.668L56.4528 135.105C58.4842 136.498 60.8304 137.365 63.2808 137.63C63.5161 137.648 63.7525 137.648 63.9878 137.63L63.6157 139.115L65.0297 138.632C65.0297 138.855 65.0297 139.059 65.0297 139.282C65.4957 141.7 66.557 143.965 68.1181 145.873L73.0112 151.442L74.8717 145.594C76.7582 146.693 78.7951 147.513 80.9183 148.026L87.8022 149.455L85.8114 142.717C85.3853 141.367 84.8178 140.067 84.1184 138.837C87.5453 137.979 90.7778 136.479 93.6441 134.418L98.6861 130.761Z" fill="#474747"/>
<path d="M80.4337 125.489C77.4016 128.675 73.6874 131.138 69.5684 132.692C70.7222 128.447 72.8859 124.543 75.8755 121.311C78.8651 118.079 82.5924 115.615 86.7408 114.128C85.5216 118.34 83.3657 122.223 80.4337 125.489V125.489Z" fill="#9DDEBF"/>
<path d="M80.5082 135.235C76.8185 135.477 73.1355 134.673 69.8848 132.915C73.0325 130.661 76.6993 129.237 80.5454 128.775C84.2372 128.534 87.9214 129.345 91.1688 131.114C88.0223 133.366 84.3541 134.784 80.5082 135.235V135.235Z" fill="#9DDEBF"/>
<path d="M74.3872 140.099C72.336 138.124 70.7916 135.685 69.8848 132.989C72.6454 133.667 75.1993 135.005 77.3267 136.887C79.3805 138.868 80.925 141.313 81.8291 144.016C79.0689 143.326 76.5161 141.983 74.3872 140.099V140.099Z" fill="#9DDEBF"/>
<path d="M69.2339 138.577C68.9618 136.828 69.0761 135.041 69.5687 133.342C70.6342 134.671 71.3618 136.238 71.6897 137.908C71.9617 139.657 71.8475 141.444 71.3548 143.144C70.2894 141.814 69.5617 140.247 69.2339 138.577V138.577Z" fill="#9DDEBF"/>
<path d="M66.0342 121.98C66.0847 125.671 67.1883 129.27 69.2156 132.358C71.2156 129.047 72.3421 125.286 72.4901 121.423C72.4294 117.734 71.3266 114.137 69.3086 111.046C67.3087 114.356 66.1822 118.118 66.0342 121.98Z" fill="#9DDEBF"/>
<path d="M61.7359 128.441C63.8648 130.324 66.4177 131.668 69.1779 132.358C68.3266 129.632 66.7711 127.178 64.6679 125.242C62.5647 123.306 59.9878 121.957 57.1963 121.33C58.1139 124.031 59.6712 126.47 61.7359 128.441Z" fill="#9DDEBF"/>
<path d="M63.671 133.379C65.4411 133.519 67.2204 133.265 68.8804 132.636C67.4638 131.68 65.8358 131.081 64.1361 130.891C62.3661 130.753 60.5874 131.007 58.9268 131.634C60.3457 132.585 61.9726 133.184 63.671 133.379Z" fill="#9DDEBF"/>
<path d="M47.7285 153.102L51.29 156.313L73.6234 131.65L70.0618 128.439L47.7285 153.102Z" fill="#9DDEBF"/>
<path d="M184.176 106.702C185.473 104.955 186.507 103.029 187.245 100.984L189.422 94.2822L182.483 95.5446C181.096 95.8318 179.743 96.2611 178.445 96.8255C177.955 93.3345 176.799 89.9694 175.041 86.9121L171.803 81.5842L168.082 86.5594C166.605 88.6261 165.48 90.9218 164.752 93.354C161.968 91.0157 158.827 89.1356 155.45 87.7847L148.194 85.13L149.887 92.6671C150.803 96.2102 152.285 99.5827 154.277 102.655C151.744 103.054 149.294 103.863 147.022 105.05L141.589 108.02L146.445 111.918C149.217 114.057 152.375 115.645 155.747 116.597C154.998 117.804 154.374 119.086 153.887 120.421L151.71 127.104L158.65 125.86C160.785 125.401 162.841 124.632 164.752 123.577L166.482 129.48L171.543 123.911C173.146 122.044 174.264 119.813 174.799 117.413L174.91 116.708L176.324 117.246L176.008 115.798H176.678C179.13 115.579 181.492 114.77 183.562 113.441L189.701 109.171L184.176 106.702Z" fill="#474747"/>
<path d="M230.576 64.1894L224.53 60.6436C221.088 58.7585 217.372 57.4241 213.516 56.6893C218.318 50.9091 221.616 44.0348 223.116 36.677L224.195 30.5507L218.093 31.8317C212.166 33.3162 206.655 36.1288 201.981 40.0557C201.649 31.9488 199.588 24.0059 195.934 16.7574L192.213 10L188.492 16.7574C184.874 24.0152 182.838 31.9558 182.52 40.0557C177.827 36.0874 172.282 33.2483 166.315 31.7574L160.213 30.4765L161.292 36.6027C162.803 43.9603 166.106 50.8334 170.91 56.6151C167.053 57.3451 163.336 58.6797 159.896 60.5693L153.85 64.1894L159.896 67.7909C164.311 70.2271 169.181 71.731 174.203 72.2091C173.83 72.8097 173.488 73.4293 173.18 74.0656L170.055 80.8416L177.497 80.0062C181.291 79.4694 184.892 77.9953 187.971 75.7178C189.352 74.6292 190.601 73.3831 191.692 72.0049L192.194 72.9146L192.66 72.0792C193.763 73.4131 195.011 74.6209 196.381 75.6807C199.458 77.961 203.059 79.4353 206.855 79.9691L214.297 80.8045L211.171 74.0285C211.078 73.8428 210.725 73.1188 210.148 72.172C215.17 71.6939 220.04 70.19 224.455 67.7537L230.576 64.1894Z" fill="#474747"/>
<path d="M197.795 41.448C197.664 49.3498 195.756 57.1215 192.213 64.1893C188.558 57.1636 186.65 49.3638 186.65 41.448C186.65 33.5322 188.558 25.7324 192.213 18.7067C195.76 25.7732 197.668 33.5457 197.795 41.448V41.448Z" fill="#9DDEBF"/>
<path d="M209.925 54.3317C205.33 59.1414 199.468 62.5585 193.013 64.1893C194.431 57.3967 197.541 51.0698 202.055 45.7921C206.649 40.9823 212.511 37.5653 218.967 35.9344C217.548 42.727 214.439 49.0539 209.925 54.3317V54.3317Z" fill="#9DDEBF"/>
<path d="M159.549 113.293C163.23 113.629 166.932 112.921 170.228 111.251C167.142 108.914 163.513 107.395 159.679 106.833C155.998 106.497 152.296 107.205 149 108.875C152.084 111.216 155.714 112.736 159.549 113.293Z" fill="#9DDEBF"/>
<path d="M207.692 68.0693C202.553 67.9681 197.516 66.6239 193.013 64.1522C197.474 61.5864 202.533 60.2357 207.683 60.2357C212.832 60.2357 217.891 61.5864 222.353 64.1522C217.855 66.6217 212.824 67.9658 207.692 68.0693V68.0693Z" fill="#9DDEBF"/>
<path d="M199.003 72.3762C196.49 70.4017 194.444 67.8978 193.013 65.0433C196.055 65.5099 198.939 66.7006 201.422 68.5148C203.936 70.4893 205.981 72.9932 207.413 75.8477C204.371 75.3812 201.487 74.1904 199.003 72.3762V72.3762Z" fill="#9DDEBF"/>
<path d="M174.445 54.3317C179.04 59.1414 184.902 62.5585 191.357 64.1893C189.95 57.3964 186.847 51.0682 182.334 45.7921C177.74 40.9823 171.877 37.5653 165.422 35.9344C166.829 42.7273 169.933 49.0555 174.445 54.3317V54.3317Z" fill="#9DDEBF"/>
<path d="M176.696 68.0693C181.828 67.9658 186.859 66.6217 191.357 64.1522C186.895 61.5864 181.836 60.2357 176.687 60.2357C171.537 60.2357 166.478 61.5864 162.017 64.1522C166.52 66.6239 171.557 67.9681 176.696 68.0693Z" fill="#9DDEBF"/>
<path d="M185.385 72.3762C187.89 70.3975 189.928 67.8943 191.357 65.0433C188.316 65.5127 185.432 66.7032 182.948 68.5148C180.443 70.4935 178.404 72.9967 176.976 75.8477C180.017 75.3783 182.9 74.1879 185.385 72.3762V72.3762Z" fill="#9DDEBF"/>
<path d="M164.573 99.2958C167.421 102.638 169.475 106.579 170.582 110.824C166.463 109.236 162.789 106.678 159.873 103.369C156.958 100.059 154.887 96.0947 153.838 91.8143C157.936 93.4677 161.606 96.0254 164.573 99.2958V99.2958Z" fill="#9DDEBF"/>
<path d="M174.378 100.243C174.221 103.934 173.022 107.506 170.917 110.546C169.012 107.185 167.988 103.398 167.94 99.5371C168.085 95.8465 169.279 92.2731 171.382 89.2339C173.298 92.5915 174.329 96.3792 174.378 100.243V100.243Z" fill="#9DDEBF"/>
<path d="M178.489 106.833C176.303 108.662 173.704 109.936 170.917 110.546C171.835 107.842 173.453 105.428 175.605 103.547C177.758 101.666 180.37 100.385 183.178 99.8341C182.204 102.51 180.595 104.912 178.489 106.833V106.833Z" fill="#9DDEBF"/>
<path d="M176.424 111.79C174.675 111.875 172.929 111.577 171.308 110.917C172.747 110.001 174.388 109.447 176.089 109.302C177.863 109.21 179.634 109.508 181.28 110.174C179.82 111.106 178.152 111.661 176.424 111.79V111.79Z" fill="#9DDEBF"/>
<path d="M165.54 118.231C167.648 116.319 169.257 113.923 170.228 111.251C167.424 111.803 164.814 113.081 162.662 114.958C160.51 116.835 158.891 119.245 157.968 121.944C160.759 121.345 163.359 120.07 165.54 118.231V118.231Z" fill="#9DDEBF"/>
<path d="M170.731 116.839C171.052 115.101 170.988 113.315 170.545 111.604C169.442 112.905 168.67 114.453 168.294 116.115C167.973 117.859 168.037 119.652 168.48 121.369C169.586 120.063 170.359 118.508 170.731 116.839V116.839Z" fill="#9DDEBF"/>
<path d="M195.123 59.2339H189.169V173.052H195.123V59.2339Z" fill="#9DDEBF"/>
<path d="M191.764 134.37L194.982 130.816L167.94 106.434L164.721 109.988L191.764 134.37Z" fill="#9DDEBF"/>
<path d="M240.008 130.687L234.613 127.475C232.399 126.224 229.99 125.352 227.487 124.895C229.565 121.886 231.13 118.555 232.12 115.037L233.98 107.611L226.669 110.08C223.235 111.368 220.031 113.198 217.18 115.501C216.508 113.032 215.44 110.687 214.017 108.558L210.427 103.453L207.04 108.688C205.187 111.697 203.924 115.029 203.319 118.509C202.035 117.92 200.695 117.46 199.319 117.135L192.417 115.687L194.408 122.444C195.082 124.508 196.06 126.46 197.31 128.236L191.729 130.594L197.738 135.012C199.763 136.419 202.112 137.294 204.566 137.556H205.273L204.901 139.022L206.315 138.558C206.315 138.781 206.315 138.985 206.315 139.208C206.785 141.625 207.846 143.888 209.403 145.798L214.296 151.368L216.157 145.52C218.034 146.637 220.074 147.457 222.203 147.952L229.087 149.4L227.171 142.754C226.725 141.409 226.152 140.11 225.459 138.874C228.886 138.016 232.119 136.517 234.985 134.455L240.008 130.687Z" fill="#474747"/>
<path d="M221.709 125.657C218.673 128.835 214.96 131.29 210.844 132.842C212.006 128.601 214.173 124.701 217.161 121.47C220.15 118.239 223.873 115.772 228.016 114.277C226.799 118.496 224.643 122.386 221.709 125.657Z" fill="#9DDEBF"/>
<path d="M221.783 135.478C218.091 135.715 214.408 134.904 211.159 133.139C214.306 130.886 217.974 129.468 221.82 129.017C225.509 128.775 229.193 129.579 232.443 131.338C229.296 133.591 225.629 135.015 221.783 135.478V135.478Z" fill="#9DDEBF"/>
<path d="M215.662 140.267C213.608 138.287 212.063 135.842 211.159 133.139C213.964 133.773 216.551 135.139 218.656 137.095C220.76 139.052 222.308 141.53 223.141 144.277C220.358 143.566 217.792 142.19 215.662 140.267Z" fill="#9DDEBF"/>
<path d="M210.508 138.726C210.236 136.978 210.351 135.191 210.843 133.491C211.907 134.829 212.634 136.401 212.964 138.077C213.236 139.825 213.122 141.612 212.629 143.312C211.565 141.974 210.838 140.402 210.508 138.726V138.726Z" fill="#9DDEBF"/>
<path d="M207.309 122.148C207.362 125.844 208.465 129.449 210.49 132.545C212.49 129.234 213.617 125.472 213.765 121.61C213.714 117.92 212.61 114.32 210.583 111.233C208.582 114.535 207.455 118.292 207.309 122.148V122.148Z" fill="#9DDEBF"/>
<path d="M202.936 128.609C205.065 130.493 207.618 131.836 210.378 132.526C209.474 129.823 207.929 127.377 205.876 125.397C203.748 123.515 201.194 122.177 198.434 121.499C199.34 124.195 200.885 126.634 202.936 128.609V128.609Z" fill="#9DDEBF"/>
<path d="M204.964 133.621C206.728 133.75 208.498 133.496 210.155 132.879C208.738 131.922 207.11 131.324 205.411 131.134C203.647 130.995 201.874 131.249 200.22 131.876C201.636 132.832 203.264 133.431 204.964 133.621V133.621Z" fill="#9DDEBF"/>
<path d="M189.009 153.271L192.57 156.482L214.393 132.383L210.832 129.172L189.009 153.271Z" fill="#9DDEBF"/>
<path d="M372.904 64.375L366.857 60.6621C363.416 58.777 359.699 57.4427 355.843 56.7079C360.646 50.9276 363.943 44.0533 365.443 36.6955L366.522 30.5693L360.42 31.8502C354.493 33.3348 348.983 36.1473 344.308 40.0743C343.976 31.9674 341.915 24.0245 338.261 16.776L334.54 10L330.819 16.776C327.165 24.0507 325.104 32.0179 324.773 40.1485C320.08 36.1802 314.535 33.3411 308.568 31.8502L302.465 30.5693L303.545 36.6955C305.056 44.0531 308.359 50.9262 313.163 56.7079C309.306 57.4379 305.588 58.7725 302.149 60.6621L296.103 64.375L302.149 67.9765C306.564 70.4127 311.434 71.9167 316.456 72.3948C316.083 72.9953 315.741 73.615 315.433 74.2512L312.307 81.0272L319.749 80.1918C323.544 79.655 327.145 78.1809 330.224 75.9034C331.638 74.8205 332.918 73.5741 334.038 72.1906L334.54 73.1002L335.006 72.2648C336.109 73.5987 337.357 74.8066 338.726 75.8663C341.804 78.1466 345.405 79.6209 349.201 80.1547L356.643 80.9901L353.517 74.2141C353.424 74.0285 353.071 73.3045 352.494 72.3577C357.516 71.8796 362.386 70.3756 366.801 67.9394L372.904 64.375Z" fill="#474747"/>
<path d="M340.123 41.8342C339.992 49.736 338.085 57.5076 334.541 64.5755C330.886 57.5498 328.979 49.75 328.979 41.8342C328.979 33.9183 330.886 26.1186 334.541 19.0928C338.088 26.1594 339.996 33.9319 340.123 41.8342V41.8342Z" fill="#9DDEBF"/>
<path d="M352.253 54.7179C347.658 59.5276 341.796 62.9447 335.341 64.5756C336.75 57.7632 339.86 51.4162 344.383 46.1226C348.977 41.3128 354.839 37.8958 361.295 36.2649C359.885 43.0772 356.775 49.4243 352.253 54.7179Z" fill="#9DDEBF"/>
<path d="M349.964 68.4926C344.826 68.3914 339.789 67.0472 335.285 64.5755C339.747 62.0096 344.806 60.659 349.955 60.659C355.105 60.659 360.164 62.0096 364.625 64.5755C360.128 67.045 355.097 68.3891 349.964 68.4926V68.4926Z" fill="#9DDEBF"/>
<path d="M341.332 72.7624C338.807 70.7612 336.761 68.2246 335.341 65.3366C338.383 65.8032 341.267 66.994 343.75 68.8082C346.274 70.8093 348.321 73.3459 349.741 76.2339C346.699 75.7673 343.815 74.5765 341.332 72.7624V72.7624Z" fill="#9DDEBF"/>
<path d="M316.773 54.7179C321.368 59.5276 327.23 62.9447 333.685 64.5756C332.287 57.763 329.183 51.4146 324.662 46.1226C320.068 41.3128 314.205 37.8958 307.75 36.2649C309.148 43.0775 312.252 49.4259 316.773 54.7179V54.7179Z" fill="#9DDEBF"/>
<path d="M319.024 68.4926C324.156 68.3891 329.187 67.045 333.685 64.5755C329.223 62.0096 324.164 60.659 319.015 60.659C313.865 60.659 308.806 62.0096 304.345 64.5755C308.848 67.0472 313.885 68.3914 319.024 68.4926V68.4926Z" fill="#9DDEBF"/>
<path d="M327.638 72.7624C330.153 70.757 332.193 68.2211 333.61 65.3366C330.569 65.806 327.685 66.9965 325.201 68.8082C322.685 70.8135 320.646 73.3494 319.229 76.2339C322.27 75.7645 325.153 74.574 327.638 72.7624Z" fill="#9DDEBF"/>
<path d="M326.504 106.887C327.801 105.141 328.835 103.215 329.574 101.17L331.75 94.4678L324.811 95.7302C323.424 96.0175 322.071 96.4467 320.773 97.0112C320.283 93.5201 319.128 90.155 317.369 87.0978L314.131 81.7698L310.41 86.7451C308.933 88.8118 307.808 91.1074 307.08 93.5396C304.296 91.2014 301.156 89.3213 297.778 87.9703L290.522 85.3156L292.215 92.8528C293.131 96.3959 294.613 99.7684 296.606 102.84C294.072 103.24 291.622 104.048 289.35 105.235L283.917 108.28L288.773 112.178C291.573 114.328 294.763 115.916 298.168 116.856C297.419 118.064 296.795 119.346 296.308 120.681L294.131 127.364L301.071 126.12C303.206 125.661 305.262 124.892 307.173 123.837L308.903 129.74L313.964 124.171C315.567 122.304 316.685 120.073 317.22 117.673L317.331 116.968L318.745 117.506L318.429 116.058H319.099C321.551 115.839 323.913 115.03 325.983 113.701L332.122 109.431L326.504 106.887Z" fill="#474747"/>
<path d="M306.95 99.3317C309.798 102.674 311.852 106.615 312.959 110.86C308.84 109.272 305.166 106.714 302.25 103.404C299.335 100.095 297.264 96.1307 296.215 91.8503C300.313 93.5036 303.983 96.0614 306.95 99.3317V99.3317Z" fill="#9DDEBF"/>
<path d="M316.755 100.279C316.598 103.97 315.399 107.542 313.294 110.582C311.389 107.221 310.365 103.434 310.317 99.5731C310.462 95.8825 311.656 92.3091 313.759 89.2698C315.675 92.6274 316.706 96.4152 316.755 100.279Z" fill="#9DDEBF"/>
<path d="M320.866 106.869C318.679 108.698 316.081 109.972 313.294 110.582C314.212 107.878 315.83 105.463 317.982 103.583C320.135 101.702 322.747 100.421 325.555 99.8701C324.581 102.546 322.972 104.948 320.866 106.869Z" fill="#9DDEBF"/>
<path d="M318.801 111.825C317.026 111.916 315.253 111.612 313.61 110.934C315.05 110.019 316.691 109.464 318.392 109.319C320.165 109.228 321.937 109.525 323.583 110.192C322.147 111.118 320.505 111.679 318.801 111.825V111.825Z" fill="#9DDEBF"/>
<path d="M301.926 113.236C305.607 113.572 309.309 112.864 312.605 111.194C309.518 108.858 305.89 107.338 302.056 106.776C298.375 106.441 294.673 107.148 291.377 108.818C294.461 111.159 298.091 112.679 301.926 113.236V113.236Z" fill="#9DDEBF"/>
<path d="M307.917 118.175C310.025 116.262 311.634 113.866 312.605 111.194C309.801 111.746 307.191 113.024 305.039 114.901C302.887 116.778 301.268 119.188 300.345 121.887C303.136 121.288 305.736 120.013 307.917 118.175V118.175Z" fill="#9DDEBF"/>
<path d="M313.108 116.782C313.429 115.044 313.365 113.258 312.922 111.547C311.819 112.848 311.047 114.396 310.671 116.058C310.35 117.802 310.414 119.595 310.857 121.312C311.963 120.006 312.736 118.451 313.108 116.782V116.782Z" fill="#9DDEBF"/>
<path d="M337.499 59.4703H331.545V173.288H337.499V59.4703Z" fill="#9DDEBF"/>
<path d="M334.163 134.624L337.381 131.07L310.338 106.689L307.12 110.242L334.163 134.624Z" fill="#9DDEBF"/>
<path d="M382.337 130.873L376.979 127.679C374.765 126.428 372.356 125.556 369.853 125.099C371.931 122.09 373.496 118.759 374.486 115.241L376.346 107.816L369.035 110.285C365.601 111.572 362.397 113.402 359.546 115.705C358.874 113.236 357.806 110.891 356.383 108.762L352.774 103.694L349.388 108.929C347.535 111.938 346.272 115.271 345.667 118.75C344.382 118.161 343.042 117.701 341.667 117.376L334.764 115.928L336.941 122.63C337.615 124.694 338.593 126.646 339.843 128.422L334.169 130.78L340.178 135.198C342.204 136.605 344.552 137.48 347.006 137.741H347.713L347.341 139.208L348.755 138.744C348.755 138.948 348.755 139.171 348.755 139.394C349.214 141.822 350.269 144.099 351.825 146.021L356.718 151.59L358.579 145.743C360.456 146.86 362.496 147.68 364.625 148.175L371.509 149.623L369.537 142.884C369.091 141.539 368.518 140.24 367.825 139.004C371.252 138.146 374.485 136.647 377.351 134.585L382.337 130.873Z" fill="#474747"/>
<path d="M364.085 125.6C361.049 128.778 357.336 131.233 353.22 132.785C354.382 128.544 356.549 124.644 359.537 121.413C362.526 118.182 366.249 115.715 370.392 114.22C369.176 118.439 367.019 122.329 364.085 125.6Z" fill="#9DDEBF"/>
<path d="M364.16 135.421C360.468 135.659 356.785 134.847 353.536 133.082C356.683 130.829 360.351 129.411 364.197 128.96C367.886 128.718 371.569 129.523 374.82 131.281C371.672 133.534 368.006 134.958 364.16 135.421Z" fill="#9DDEBF"/>
<path d="M358.039 140.21C355.985 138.23 354.44 135.785 353.536 133.082C356.328 133.709 358.904 135.058 361.008 136.993C363.111 138.929 364.666 141.383 365.518 144.109C362.744 143.436 360.177 142.098 358.039 140.21V140.21Z" fill="#9DDEBF"/>
<path d="M352.885 138.67C352.613 136.921 352.727 135.134 353.22 133.434C354.284 134.772 355.011 136.344 355.341 138.02C355.613 139.768 355.499 141.555 355.006 143.255C353.942 141.917 353.215 140.345 352.885 138.67V138.67Z" fill="#9DDEBF"/>
<path d="M349.686 122.073C349.739 125.769 350.842 129.374 352.867 132.469C354.867 129.159 355.993 125.397 356.141 121.535C356.091 117.844 354.987 114.244 352.96 111.157C350.959 114.46 349.832 118.216 349.686 122.073V122.073Z" fill="#9DDEBF"/>
<path d="M345.387 128.552C347.516 130.436 350.069 131.779 352.829 132.469C351.925 129.766 350.38 127.321 348.327 125.34C346.199 123.458 343.645 122.12 340.885 121.442C341.792 124.138 343.336 126.577 345.387 128.552Z" fill="#9DDEBF"/>
<path d="M347.341 133.564C349.105 133.693 350.875 133.439 352.532 132.822C351.115 131.866 349.487 131.267 347.787 131.077C346.023 130.938 344.251 131.192 342.597 131.819C344.013 132.776 345.641 133.374 347.341 133.564V133.564Z" fill="#9DDEBF"/>
<path d="M331.38 153.221L334.941 156.432L356.882 132.202L353.321 128.991L331.38 153.221Z" fill="#9DDEBF"/>
<path d="M514.301 64.1894L508.255 60.6436C504.813 58.7585 501.097 57.4241 497.241 56.6893C502.043 50.9091 505.341 44.0348 506.841 36.677L507.92 30.5507L501.817 31.8317C495.89 33.3162 490.38 36.1288 485.705 40.0557C485.374 31.9488 483.312 24.0059 479.659 16.7574L475.938 10L472.217 16.7574C468.563 24.0321 466.502 31.9994 466.17 40.1299C461.477 36.1616 455.933 33.3225 449.965 31.8317L443.863 30.5507L444.942 36.677C446.453 44.0345 449.757 50.9076 454.561 56.6893C450.703 57.4193 446.986 58.7539 443.547 60.6436L437.5 64.2636L443.547 67.8651C447.962 70.3013 452.832 71.8053 457.854 72.2834C457.48 72.8839 457.139 73.5036 456.831 74.1399L453.705 80.9158L461.147 80.0804C464.942 79.5436 468.542 78.0696 471.622 75.7921C473.035 74.7091 474.316 73.4628 475.436 72.0792L475.938 72.9888L476.403 72.1535C477.506 73.4873 478.754 74.6952 480.124 75.7549C483.202 78.0352 486.803 79.5095 490.599 80.0433L498.041 80.8787L494.915 74.1027C494.822 73.9171 494.468 73.1931 493.892 72.2463C498.914 71.7682 503.784 70.2642 508.199 67.828L514.301 64.1894Z" fill="#3F3F3F"/>
<path d="M481.52 41.448C481.389 49.3498 479.482 57.1215 475.939 64.1893C472.284 57.1636 470.376 49.3638 470.376 41.448C470.376 33.5322 472.284 25.7324 475.939 18.7067C479.486 25.7732 481.393 33.5457 481.52 41.448V41.448Z" fill="#9DDEBF"/>
<path d="M493.65 54.3317C489.056 59.1414 483.194 62.5585 476.738 64.1893C478.157 57.3967 481.266 51.0698 485.78 45.7921C490.375 40.9823 496.237 37.5653 502.692 35.9344C501.274 42.727 498.164 49.0539 493.65 54.3317V54.3317Z" fill="#9DDEBF"/>
<path d="M491.362 68.0693C486.223 67.9681 481.186 66.6239 476.683 64.1522C481.144 61.5864 486.203 60.2357 491.353 60.2357C496.502 60.2357 501.561 61.5864 506.023 64.1522C501.525 66.6217 496.494 67.9658 491.362 68.0693V68.0693Z" fill="#9DDEBF"/>
<path d="M482.729 72.3762C480.216 70.4017 478.17 67.8978 476.738 65.0433C479.78 65.5099 482.665 66.7006 485.148 68.5148C487.661 70.4893 489.707 72.9932 491.138 75.8477C488.097 75.3812 485.212 74.1904 482.729 72.3762Z" fill="#9DDEBF"/>
<path d="M458.171 54.3317C462.765 59.1414 468.627 62.5585 475.083 64.1893C473.676 57.3964 470.572 51.0682 466.059 45.7921C461.465 40.9823 455.603 37.5653 449.147 35.9344C450.554 42.7273 453.658 49.0555 458.171 54.3317Z" fill="#9DDEBF"/>
<path d="M460.421 68.0693C465.554 67.9658 470.585 66.6217 475.082 64.1522C470.621 61.5864 465.562 60.2357 460.412 60.2357C455.263 60.2357 450.204 61.5864 445.742 64.1522C450.246 66.6239 455.283 67.9681 460.421 68.0693Z" fill="#9DDEBF"/>
<path d="M469.036 72.3762C471.541 70.3975 473.58 67.8943 475.009 65.0433C471.967 65.5127 469.084 66.7032 466.599 68.5148C464.095 70.4935 462.056 72.9967 460.627 75.8477C463.668 75.3783 466.552 74.1879 469.036 72.3762V72.3762Z" fill="#9DDEBF"/>
<path d="M467.901 106.702C469.199 104.955 470.233 103.029 470.971 100.984L473.148 94.2822L466.208 95.5446C464.822 95.8318 463.469 96.2611 462.171 96.8255C461.681 93.3345 460.525 89.9694 458.766 86.9121L455.529 81.5842L451.808 86.5594C450.331 88.6261 449.206 90.9218 448.478 93.354C445.693 91.0157 442.553 89.1356 439.175 87.7847L431.919 85.13L433.612 92.6671C434.528 96.2102 436.011 99.5827 438.003 102.655C435.47 103.054 433.019 103.863 430.747 105.05L425.314 108.094L430.17 111.993C432.97 114.142 436.161 115.731 439.566 116.671C438.816 117.879 438.193 119.16 437.705 120.495L435.547 127.104L442.487 125.86C444.616 125.399 446.665 124.63 448.571 123.577L450.301 129.48L455.361 123.911C456.965 122.044 458.083 119.813 458.617 117.413L458.729 116.708L460.143 117.246L459.827 115.798H460.496C462.948 115.579 465.31 114.77 467.38 113.441L473.52 109.171L467.901 106.702Z" fill="#3F3F3F"/>
<path d="M448.347 99.146C451.195 102.488 453.249 106.429 454.357 110.674C450.237 109.087 446.563 106.529 443.648 103.219C440.732 99.9089 438.662 95.945 437.612 91.6646C441.711 93.318 445.381 95.8757 448.347 99.146V99.146Z" fill="#9DDEBF"/>
<path d="M458.152 100.093C457.996 103.784 456.796 107.356 454.692 110.396C452.786 107.035 451.762 103.248 451.715 99.3874C451.86 95.6968 453.053 92.1234 455.157 89.0842C457.073 92.4418 458.103 96.2295 458.152 100.093V100.093Z" fill="#9DDEBF"/>
<path d="M462.264 106.683C460.077 108.513 457.479 109.786 454.691 110.396C455.61 107.692 457.227 105.278 459.38 103.397C461.533 101.516 464.145 100.236 466.952 99.6844C465.978 102.361 464.37 104.762 462.264 106.683V106.683Z" fill="#9DDEBF"/>
<path d="M460.199 111.64C458.424 111.731 456.65 111.426 455.008 110.749C456.447 109.833 458.088 109.279 459.789 109.134C461.563 109.042 463.335 109.34 464.98 110.006C463.544 110.933 461.902 111.494 460.199 111.64V111.64Z" fill="#9DDEBF"/>
<path d="M443.324 113.051C447.006 113.386 450.707 112.678 454.004 111.009C450.917 108.672 447.288 107.152 443.455 106.59C439.773 106.255 436.072 106.963 432.775 108.632C435.86 110.973 439.49 112.494 443.324 113.051Z" fill="#9DDEBF"/>
<path d="M449.314 117.989C451.422 116.076 453.031 113.681 454.003 111.009C451.198 111.56 448.589 112.839 446.436 114.716C444.284 116.593 442.665 119.002 441.742 121.702C444.533 121.102 447.134 119.827 449.314 117.989V117.989Z" fill="#9DDEBF"/>
<path d="M454.506 116.597C454.826 114.859 454.763 113.072 454.32 111.361C453.217 112.663 452.444 114.21 452.068 115.873C451.748 117.616 451.811 119.409 452.254 121.126C453.361 119.82 454.133 118.266 454.506 116.597Z" fill="#9DDEBF"/>
<path d="M478.897 59.0842H472.943V172.902H478.897V59.0842Z" fill="#9DDEBF"/>
<path d="M475.539 134.241L478.757 130.687L451.714 106.305L448.496 109.859L475.539 134.241Z" fill="#9DDEBF"/>
<path d="M523.734 130.687L518.376 127.475C516.162 126.224 513.753 125.352 511.25 124.895C513.328 121.886 514.893 118.555 515.883 115.037L517.743 107.611L510.432 110.08C506.998 111.368 503.794 113.198 500.943 115.501C500.271 113.032 499.203 110.687 497.78 108.558L494.171 103.49L490.785 108.725C488.932 111.734 487.669 115.066 487.064 118.546C485.779 117.957 484.439 117.497 483.064 117.172L476.161 115.724L478.152 122.481C478.826 124.545 479.804 126.497 481.054 128.274L475.38 130.631L481.389 135.05C483.415 136.457 485.763 137.331 488.217 137.593H488.924L488.552 139.059L489.966 138.595C489.966 138.818 489.966 139.022 489.966 139.245C490.437 141.662 491.497 143.926 493.055 145.835L497.948 151.405L499.808 145.557C501.686 146.674 503.726 147.495 505.855 147.989L512.739 149.437L510.766 142.698C510.321 141.353 509.748 140.054 509.055 138.818C512.482 137.96 515.714 136.461 518.581 134.4L523.734 130.687Z" fill="#3F3F3F"/>
<path d="M505.482 125.415C502.446 128.592 498.733 131.047 494.617 132.599C495.78 128.358 497.946 124.458 500.935 121.227C503.923 117.997 507.646 115.53 511.79 114.035C510.573 118.253 508.417 122.144 505.482 125.415V125.415Z" fill="#9DDEBF"/>
<path d="M505.557 135.235C501.865 135.473 498.182 134.662 494.934 132.896C498.08 130.644 501.748 129.226 505.594 128.775C509.284 128.532 512.967 129.337 516.218 131.095C513.07 133.349 509.403 134.772 505.557 135.235V135.235Z" fill="#9DDEBF"/>
<path d="M499.436 140.025C497.382 138.045 495.838 135.599 494.934 132.896C497.739 133.531 500.326 134.896 502.43 136.853C504.535 138.809 506.082 141.287 506.915 144.035C504.133 143.324 501.566 141.947 499.436 140.025V140.025Z" fill="#9DDEBF"/>
<path d="M494.283 138.484C494.011 136.735 494.125 134.949 494.618 133.249C495.681 134.586 496.409 136.159 496.739 137.834C497.011 139.583 496.896 141.369 496.404 143.069C495.34 141.732 494.613 140.159 494.283 138.484V138.484Z" fill="#9DDEBF"/>
<path d="M491.083 121.906C491.136 125.602 492.239 129.207 494.264 132.302C496.264 128.992 497.391 125.23 497.539 121.368C497.488 117.677 496.385 114.077 494.357 110.99C492.356 114.293 491.229 118.049 491.083 121.906Z" fill="#9DDEBF"/>
<path d="M486.786 128.366C488.915 130.25 491.467 131.594 494.228 132.283C493.323 129.58 491.779 127.135 489.725 125.155C487.598 123.273 485.044 121.935 482.283 121.256C483.19 123.953 484.734 126.391 486.786 128.366Z" fill="#9DDEBF"/>
<path d="M488.738 133.379C490.502 133.507 492.273 133.254 493.929 132.636C492.513 131.68 490.885 131.081 489.185 130.891C487.421 130.752 485.648 131.006 483.994 131.634C485.411 132.59 487.039 133.189 488.738 133.379V133.379Z" fill="#9DDEBF"/>
<path d="M472.763 153.047L476.324 156.258L498.573 131.689L495.011 128.478L472.763 153.047Z" fill="#9DDEBF"/>
</g>
<defs>
<clipPath id="clip0_437_947">
<rect width="523.543" height="164.911" fill="white" transform="translate(0.191406 0.193115)"/>
</clipPath>
</defs>
</svg>
