<svg width="570" height="85" viewBox="0 0 570 85" fill="none" xmlns="http://www.w3.org/2000/svg">
<path d="M0 35.0929H252" stroke="#474747" stroke-width="2.27" stroke-miterlimit="10"/>
<path d="M0 50.0929H252" stroke="#474747" stroke-width="2.27" stroke-miterlimit="10"/>
<path d="M315 35.0929H570" stroke="#474747" stroke-width="2.27" stroke-miterlimit="10"/>
<path d="M315 50.0929H570" stroke="#474747" stroke-width="2.27" stroke-miterlimit="10"/>
<path d="M0 16.2599C35.5913 16.2599 35.5913 1.40845 71.2012 1.40845C106.811 1.40845 106.811 16.2599 142.402 16.2599C177.994 16.2599 178.012 1.40845 213.622 1.40845C249.232 1.40845 249.232 16.2599 284.823 16.2599C320.415 16.2599 320.433 1.40845 356.024 1.40845C391.616 1.40845 391.634 16.2599 427.244 16.2599C462.854 16.2599 462.854 1.40845 498.445 1.40845C534.037 1.40845 534.055 16.2599 569.665 16.2599" stroke="#474747" stroke-width="2.27" stroke-miterlimit="10"/>
<path d="M315.275 28.8094H297.452H269.824H252V56.3961H269.824V66.3837H297.452V56.3961H315.275V28.8094Z" stroke="#474747" stroke-width="2.27" stroke-miterlimit="10"/>
<path d="M79.0893 72.9617C79.0893 80.3874 75.0893 84.1003 70.159 84.1003C65.2287 84.1003 61.21 80.3874 61.21 72.9617C61.21 65.536 70.159 51.0001 70.159 51.0001C70.159 51.0001 79.0893 65.4803 79.0893 72.9617Z" fill="#9DDEBF"/>
<path d="M221.678 72.9431C221.678 80.3689 217.678 84.0818 212.748 84.0818C207.818 84.0818 203.799 80.3689 203.799 72.9431C203.799 65.5174 212.822 51.0001 212.822 51.0001C212.822 51.0001 221.678 65.4803 221.678 72.9431Z" fill="#9DDEBF"/>
<path d="M364.453 72.9431C364.453 80.3689 360.453 84.0818 355.522 84.0818C350.592 84.0818 346.592 80.3689 346.592 72.9431C346.592 65.5174 355.522 51.0001 355.522 51.0001C355.522 51.0001 364.453 65.4803 364.453 72.9431Z" fill="#9DDEBF"/>
<path d="M505.404 72.9431C505.404 80.3689 501.404 84.0818 496.473 84.0818C491.543 84.0818 487.524 80.3689 487.524 72.9431C487.524 65.5174 496.473 51.0001 496.473 51.0001C496.473 51.0001 505.404 65.4803 505.404 72.9431Z" fill="#9DDEBF"/>
</svg>
