<svg width="26" height="25" viewBox="0 0 26 25" fill="none" xmlns="http://www.w3.org/2000/svg">
<circle cx="13.0489" cy="12.4098" r="11.4098" stroke="#013D3D" stroke-width="2"/>
<g clip-path="url(#clip0_2041_1294)">
<path d="M18.4595 15.0735C18.4595 15.8006 18.1712 16.498 17.6579 17.0128C17.1446 17.5277 16.4481 17.818 15.7211 17.8202H10.4345C9.70603 17.8202 9.00739 17.5309 8.49228 17.0157C7.97718 16.5006 7.6878 15.802 7.6878 15.0735V9.78697C7.6878 9.0585 7.97718 8.35986 8.49228 7.84476C9.00739 7.32965 9.70603 7.04027 10.4345 7.04027H15.7211C16.4495 7.04027 17.1482 7.32965 17.6633 7.84476C18.1784 8.35986 18.4678 9.0585 18.4678 9.78697L18.4595 15.0735ZM19.717 9.78697C19.7148 8.72785 19.2931 7.71273 18.5442 6.96382C17.7953 6.21491 16.7802 5.7932 15.7211 5.79102H10.4345C9.37394 5.79101 8.3567 6.21175 7.606 6.9609C6.8553 7.71005 6.43246 8.72642 6.43027 9.78697V15.0735C6.43246 16.1341 6.8553 17.1505 7.606 17.8996C8.3567 18.6488 9.37394 19.0695 10.4345 19.0695H15.7211C16.7816 19.0695 17.7989 18.6488 18.5496 17.8996C19.3003 17.1505 19.7231 16.1341 19.7253 15.0735L19.717 9.78697ZM13.0985 14.6185C12.6828 14.6185 12.2766 14.4953 11.931 14.2644C11.5854 14.0335 11.3161 13.7053 11.157 13.3213C10.998 12.9373 10.9564 12.5148 11.0374 12.1072C11.1185 11.6995 11.3187 11.3251 11.6126 11.0312C11.9064 10.7373 12.2809 10.5372 12.6885 10.4561C13.0961 10.375 13.5187 10.4166 13.9026 10.5757C14.2866 10.7347 14.6148 11.0041 14.8457 11.3497C15.0766 11.6952 15.1999 12.1015 15.1999 12.5171C15.1999 12.7931 15.1455 13.0663 15.0399 13.3213C14.9343 13.5762 14.7795 13.8079 14.5844 14.003C14.3892 14.1982 14.1576 14.3529 13.9026 14.4586C13.6477 14.5642 13.3744 14.6185 13.0985 14.6185ZM13.0985 9.23266C12.444 9.23266 11.8041 9.42675 11.2599 9.79038C10.7157 10.154 10.2916 10.6708 10.0411 11.2755C9.79062 11.8802 9.72508 12.5456 9.85277 13.1875C9.98046 13.8295 10.2956 14.4191 10.7584 14.882C11.2213 15.3448 11.8109 15.6599 12.4529 15.7876C13.0948 15.9153 13.7602 15.8498 14.3649 15.5993C14.9696 15.3488 15.4864 14.9247 15.85 14.3805C16.2137 13.8363 16.4077 13.1965 16.4077 12.5419C16.4077 11.6643 16.0591 10.8225 15.4385 10.2019C14.8179 9.58132 13.9761 9.23266 13.0985 9.23266ZM16.5484 8.23161C16.3968 8.23982 16.2508 8.29177 16.1281 8.38117C16.0054 8.47058 15.9112 8.59361 15.8569 8.7354C15.8026 8.87719 15.7906 9.03166 15.8222 9.18016C15.8538 9.32865 15.9278 9.46481 16.0351 9.57216C16.1425 9.67952 16.2787 9.75348 16.4271 9.78512C16.5756 9.81675 16.7301 9.80469 16.8719 9.75041C17.0137 9.69613 17.1367 9.60194 17.2261 9.47922C17.3155 9.35651 17.3675 9.21053 17.3757 9.05893C17.3817 8.94871 17.3644 8.83848 17.3249 8.7354C17.2854 8.63232 17.2247 8.53871 17.1467 8.46066C17.0686 8.38261 16.975 8.32188 16.8719 8.28241C16.7688 8.24295 16.6586 8.22564 16.5484 8.23161Z" fill="#013D3D"/>
</g>
<defs>
<clipPath id="clip0_2041_1294">
<rect width="13.2867" height="13.2867" fill="white" transform="translate(6.43027 5.79102)"/>
</clipPath>
</defs>
</svg>
