<svg width="46" height="44" viewBox="0 0 46 44" fill="none" xmlns="http://www.w3.org/2000/svg">
<path d="M44 21.8512C44 10.3351 34.3745 1 22.5 1C10.6256 1 1 10.3351 1 21.8512C1 33.3673 10.6256 42.7024 22.5 42.7024" stroke="#474747" stroke-width="1.5" stroke-linecap="round" stroke-linejoin="round"/>
<path d="M24.651 1.10352C24.651 1.10352 31.101 9.33975 31.101 21.8505M20.351 42.5974C20.351 42.5974 13.901 34.3612 13.901 21.8505C13.901 9.33975 20.351 1.10352 20.351 1.10352M2.35547 29.1484H22.501M2.35547 14.5526H42.6465" stroke="#474747" stroke-width="1.5" stroke-linecap="round" stroke-linejoin="round"/>
<path d="M43.7411 34.1881C44.8032 34.822 44.7365 36.3629 43.6443 36.4838L38.1253 37.0906L35.6506 41.9114C35.1604 42.8685 33.6447 42.3993 33.3931 41.215L30.6949 28.4623C30.482 27.4615 31.4108 26.8318 32.3074 27.3677L43.7411 34.1881V34.1881Z" stroke="#474747" stroke-width="1.5"/>
</svg>
