<svg width="68" height="59" viewBox="0 0 68 59" fill="none" xmlns="http://www.w3.org/2000/svg">
<path d="M24.3196 23.1724C24.3196 23.1724 24.3196 23.1724 24.3122 23.1649C24.283 23.1249 24.2501 23.0878 24.2139 23.0541C24.2081 23.049 24.2026 23.0435 24.1976 23.0376C24.1621 23.0063 24.1243 22.9777 24.0844 22.9523L24.0666 22.9418C24.0255 22.9167 23.9821 22.8956 23.9371 22.8789H23.9222C23.8765 22.8632 23.8298 22.8512 23.7823 22.8429H23.7644C23.724 22.8364 23.6832 22.8329 23.6423 22.8325H9.39746V9.35491H31.1786C32.3758 9.40527 33.5493 9.70618 34.6244 10.2384C36.7872 11.3466 37.8828 13.3173 37.8828 16.0967C37.8828 18.8761 36.7872 20.8468 34.6244 21.9549C33.5502 22.4867 32.3777 22.7876 31.1816 22.8385H28.8074C28.5848 22.8385 28.3712 22.9274 28.2138 23.0858C28.0564 23.2442 27.9679 23.459 27.9679 23.683C27.9679 23.907 28.0564 24.1219 28.2138 24.2803C28.3712 24.4387 28.5848 24.5276 28.8074 24.5276H31.1816C31.2649 24.5276 39.5618 24.4303 39.5618 16.0967C39.5618 7.76306 31.2649 7.66573 31.1816 7.66573H8.55646C8.33407 7.66612 8.12092 7.75528 7.9638 7.91363C7.80669 8.07198 7.71844 8.28658 7.71844 8.51032V22.8924C5.59436 23.1649 0.177734 24.5187 0.177734 31.2544C0.177734 39.5896 8.4731 39.6854 8.55646 39.6854H23.6379C23.9103 39.6854 30.3361 39.7618 30.3361 46.4242C30.3361 49.2035 29.2406 51.1758 27.0778 52.2839C26.0036 52.8157 24.8311 53.1166 23.6349 53.1674H1.01278C0.796436 53.1766 0.591982 53.2695 0.442127 53.4268C0.292273 53.584 0.20861 53.7934 0.20861 54.0113C0.20861 54.2291 0.292273 54.4385 0.442127 54.5958C0.591982 54.753 0.796436 54.846 1.01278 54.8551H23.6379C23.7212 54.8551 32.0166 54.7593 32.0166 46.4242C32.0166 38.0891 23.7242 37.9977 23.6379 37.9977H8.55795C8.28556 37.9977 1.85973 37.9198 1.85973 31.2589C1.85973 28.4796 2.95526 26.5088 5.11804 25.4007C5.93762 24.9927 6.81717 24.7201 7.7229 24.5935V35.133C7.71814 35.2468 7.7363 35.3604 7.77631 35.4669C7.81631 35.5735 7.87732 35.6708 7.95568 35.753C8.03404 35.8353 8.12812 35.9007 8.23226 35.9454C8.3364 35.9901 8.44845 36.0131 8.56167 36.0131C8.67489 36.0131 8.78694 35.9901 8.89109 35.9454C8.99523 35.9007 9.0893 35.8353 9.16766 35.753C9.24602 35.6708 9.30703 35.5735 9.34704 35.4669C9.38704 35.3604 9.4052 35.2468 9.40044 35.133V24.5127H23.2151L36.0534 42.3405C36.1874 42.5123 36.3823 42.6252 36.5972 42.6555C36.8121 42.6859 37.0304 42.6313 37.2062 42.5033C37.382 42.3752 37.5017 42.1836 37.5401 41.9687C37.5786 41.7538 37.5328 41.5323 37.4124 41.3506L24.3196 23.1724Z" fill="#008556"/>
<path d="M35.8442 50.725C35.8566 50.8502 35.8334 50.9764 35.7773 51.0888C35.7211 51.2012 35.6344 51.2952 35.5271 51.3599C35.3774 51.4398 35.2125 51.4867 35.0433 51.4977H32.8017C32.6335 51.4865 32.4697 51.4396 32.3209 51.3599C32.2134 51.2954 32.1263 51.2015 32.0699 51.089C32.0135 50.9766 31.9901 50.8503 32.0024 50.725V45.7143H31.1777V50.725C31.1777 51.2836 31.3147 51.6879 31.5841 51.923C31.7999 52.1132 32.1378 52.2225 32.5903 52.251H35.2577C35.7161 52.2255 36.057 52.1117 36.2669 51.9155C36.5363 51.6759 36.6718 51.2731 36.6718 50.7175V47.2373H35.8442V50.725Z" fill="#008556"/>
<path d="M41.6716 47.2014C41.4989 47.1804 41.036 47.1699 40.256 47.1699C39.4418 47.1699 38.8851 47.2148 38.5562 47.3077C38.3689 47.3532 38.1947 47.4416 38.047 47.566C37.8993 47.6904 37.7822 47.8475 37.7048 48.025C37.5559 48.3739 37.4785 48.943 37.4785 49.7172C37.4785 50.4914 37.5529 51.0574 37.6988 51.3959C37.7768 51.574 37.8948 51.7315 38.0436 51.856C38.1924 51.9805 38.3678 52.0685 38.5562 52.1132C38.8822 52.206 39.4374 52.2509 40.256 52.2509C41.0345 52.2509 41.4975 52.2405 41.6701 52.2195C42.1167 52.1686 42.4471 52.0203 42.6525 51.7807C42.8892 51.5037 43.0098 51.0544 43.0098 50.4464V50.394H42.1851V50.4464C42.1851 50.9511 42.0809 51.2581 41.8755 51.3599C41.6939 51.4468 41.1491 51.4902 40.256 51.4902C39.8198 51.505 39.3831 51.4825 38.9506 51.4228C38.8312 51.4039 38.719 51.3529 38.626 51.2751C38.533 51.1973 38.4626 51.0957 38.4222 50.9811C38.3433 50.7624 38.3031 50.3371 38.3031 49.7172C38.3031 49.0972 38.3418 48.6569 38.4163 48.4383C38.457 48.324 38.5275 48.2228 38.6205 48.1453C38.7135 48.0678 38.8254 48.017 38.9447 47.998C39.3791 47.9378 39.8178 47.9153 40.256 47.9306C41.3784 47.9306 41.7594 48.0055 41.883 48.0669C42.0824 48.1642 42.1807 48.4697 42.1807 48.9744V49.0268H43.0053V48.9744C43.0053 48.3619 42.8847 47.9112 42.6466 47.6266C42.4471 47.3975 42.1167 47.2523 41.6716 47.2014Z" fill="#008556"/>
<path d="M48.1804 47.2014C48.0077 47.1804 47.5448 47.1699 46.7648 47.1699C45.9506 47.1699 45.3939 47.2148 45.065 47.3077C44.8776 47.3534 44.7033 47.4419 44.5554 47.5663C44.4075 47.6906 44.29 47.8476 44.2121 48.025C44.0632 48.3739 43.9873 48.943 43.9873 49.7172C43.9873 50.4914 44.0617 51.0574 44.2076 51.3959C44.2856 51.574 44.4036 51.7315 44.5524 51.856C44.7012 51.9805 44.8766 52.0685 45.065 52.1132C45.391 52.206 45.9462 52.2509 46.7648 52.2509C47.5433 52.2509 48.0062 52.2405 48.1789 52.2195C48.6255 52.1686 48.9559 52.0203 49.1613 51.7807C49.398 51.5037 49.5171 51.0559 49.5171 50.4464V50.394H48.6939V50.4464C48.6939 50.9511 48.5897 51.2581 48.3843 51.3599C48.2027 51.4468 47.6579 51.4902 46.7648 51.4902C46.3286 51.505 45.8919 51.4825 45.4594 51.4228C45.34 51.4039 45.2278 51.3529 45.1348 51.2751C45.0418 51.1973 44.9714 51.0957 44.931 50.9811C44.8521 50.7624 44.8119 50.3371 44.8119 49.7172C44.8119 49.0972 44.8506 48.6569 44.9251 48.4383C44.9658 48.324 45.0363 48.2228 45.1293 48.1453C45.2223 48.0678 45.3342 48.017 45.4535 47.998C45.8879 47.9378 46.3266 47.9153 46.7648 47.9306C47.8872 47.9306 48.2682 48.0055 48.3918 48.0669C48.5912 48.1642 48.6895 48.4697 48.6895 48.9744V49.0268H49.5126V48.9744C49.5126 48.3619 49.3935 47.9112 49.1554 47.6266C48.9559 47.3975 48.6255 47.2523 48.1804 47.2014Z" fill="#008556"/>
<path d="M50.4336 52.1836H55.1462V51.4214H51.2582V50.0617H55.0048V49.2994H51.2582V47.9996H55.1462V47.2389H50.4336V52.1836Z" fill="#008556"/>
<path d="M61.2208 49.5675C60.9529 49.4402 60.3396 49.3758 59.3468 49.3698C58.3822 49.3698 57.7764 49.3069 57.5472 49.1916C57.4311 49.1361 57.3347 49.0463 57.2708 48.9342C57.207 48.822 57.1787 48.6929 57.1899 48.5641C57.1899 48.2167 57.4058 48.0175 57.8523 47.9546C58.2642 47.9212 58.6776 47.9092 59.0908 47.9187C59.8841 47.9187 60.3798 47.9726 60.5644 48.0774C60.7489 48.1823 60.8516 48.4338 60.8516 48.8127V48.8591H61.6554V48.8067C61.6554 48.1912 61.517 47.7675 61.2416 47.5473C60.9052 47.2808 60.1997 47.1505 59.0878 47.1505C57.9759 47.1505 57.2495 47.2313 56.9116 47.3976C56.5484 47.5803 56.3653 47.9681 56.3653 48.5506C56.3653 49.0853 56.5142 49.4701 56.8238 49.6932C57.2048 49.9703 57.9431 50.1065 59.0833 50.1065C60.2235 50.1065 60.6031 50.1664 60.7087 50.2189C60.8814 50.2997 60.9663 50.4869 60.9663 50.7879C60.9774 50.9133 60.9455 51.0387 60.8759 51.1434C60.8063 51.248 60.7032 51.3255 60.5837 51.363C60.3828 51.4393 59.8231 51.4768 58.924 51.4768C58.025 51.4768 57.4936 51.4214 57.3105 51.312C57.1274 51.2027 57.0292 50.9287 57.0292 50.5034V50.451H56.2061V50.5064C56.2061 51.1773 56.3549 51.6265 56.6243 51.8407C56.9697 52.1102 57.7213 52.242 58.9211 52.242C60.0374 52.242 60.7534 52.1656 61.1077 52.0084C61.5542 51.8107 61.7909 51.4094 61.7909 50.7984C61.7909 50.1635 61.5944 49.7486 61.2208 49.5675Z" fill="#008556"/>
<path d="M67.422 49.5675C67.1555 49.4402 66.5423 49.3758 65.5479 49.3698C64.5834 49.3698 63.9776 49.3069 63.7498 49.1916C63.6338 49.1361 63.5374 49.0463 63.4735 48.9342C63.4096 48.822 63.3814 48.6929 63.3926 48.5641C63.3926 48.2167 63.6084 48.0175 64.0535 47.9546C64.4659 47.9212 64.8798 47.9092 65.2934 47.9187C66.0853 47.9187 66.581 47.9726 66.767 48.0774C66.9531 48.1823 67.0528 48.4338 67.0528 48.8127V48.8591H67.8566V48.8067C67.8566 48.1912 67.7182 47.7675 67.4443 47.5473C67.1079 47.2808 66.4023 47.1505 65.289 47.1505C64.1756 47.1505 63.4521 47.2313 63.1128 47.3991C62.7496 47.5803 62.5665 47.9681 62.5665 48.5506C62.5665 49.0853 62.7153 49.4701 63.0249 49.6932C63.406 49.9703 64.1458 50.1065 65.286 50.1065C66.4262 50.1065 66.8042 50.1664 66.9099 50.2189C67.0841 50.2997 67.1689 50.4869 67.1689 50.7879C67.1799 50.9135 67.1478 51.0391 67.078 51.1437C67.0081 51.2484 66.9046 51.3258 66.7849 51.363C66.5839 51.4393 66.0272 51.4768 65.1267 51.4768C64.2262 51.4768 63.6948 51.4214 63.5132 51.312C63.3316 51.2027 63.2304 50.9287 63.2304 50.5034V50.451H62.4072V50.5064C62.4072 51.1758 62.5486 51.6265 62.827 51.8407C63.1723 52.1102 63.9225 52.242 65.1237 52.242C66.2237 52.242 66.959 52.1626 67.3103 52.0084C67.7569 51.8107 67.9935 51.4094 67.9935 50.7984C67.995 50.1635 67.8015 49.7486 67.422 49.5675Z" fill="#008556"/>
<path d="M39.9534 58.56H39.5471L39.2672 58.0224H37.548L37.2667 58.56H36.8604L38.1226 56.1415H38.6838L39.9534 58.56ZM39.1065 57.7034L38.4516 56.429H38.3652L37.7088 57.7034H39.1065Z" fill="black"/>
<path d="M43.3325 57.6509C43.3526 57.8972 43.2908 58.1432 43.1568 58.3502C43.0277 58.4888 42.851 58.5729 42.6626 58.5853C42.5555 58.5973 42.3039 58.6033 41.908 58.6033C41.6157 58.6143 41.3232 58.5927 41.0357 58.5389C40.9417 58.5181 40.8538 58.4756 40.7789 58.4148C40.704 58.354 40.6442 58.2765 40.604 58.1885C40.5082 57.9117 40.4678 57.6185 40.485 57.3259C40.4659 57.0438 40.5076 56.7608 40.607 56.4963C40.6516 56.4108 40.715 56.3367 40.7924 56.2796C40.8698 56.2225 40.9591 56.1839 41.0536 56.1669C41.3356 56.1181 41.6219 56.0985 41.908 56.1085C42.3337 56.1085 42.5659 56.1085 42.609 56.1085C42.7984 56.1107 42.9814 56.1772 43.1285 56.2972C43.2034 56.3821 43.2601 56.4817 43.2952 56.5896C43.3303 56.6975 43.343 56.8115 43.3325 56.9246H42.9752C42.9752 56.688 42.9157 56.5427 42.7981 56.4918C42.6805 56.4409 42.4051 56.4304 41.905 56.4304C41.6754 56.4235 41.4456 56.4325 41.2173 56.4574C41.152 56.4658 41.0901 56.4914 41.0378 56.5317C40.9855 56.5719 40.9448 56.6253 40.9196 56.6865C40.8598 56.9022 40.8362 57.1264 40.8496 57.3499C40.8373 57.5727 40.8599 57.7961 40.9166 58.0118C40.9423 58.0748 40.9845 58.1295 41.0388 58.1702C41.0931 58.2108 41.1574 58.2358 41.2247 58.2424C41.453 58.269 41.6828 58.2785 41.9124 58.2709C42.0995 58.2615 42.2869 58.2645 42.4736 58.2799C42.6084 58.283 42.7394 58.2342 42.8398 58.1436C42.9453 58.0008 42.9936 57.8234 42.9752 57.6464H41.8157V57.3185H43.3325V57.6509Z" fill="black"/>
<path d="M47.0156 58.5599H46.6569V57.9609C46.6563 57.9165 46.6436 57.873 46.6203 57.8353C46.597 57.7976 46.5638 57.767 46.5244 57.7468C46.4468 57.7013 46.3583 57.678 46.2684 57.6794H44.5775V58.5539H44.2188V56.1415H46.3771C46.4713 56.1357 46.5654 56.154 46.6508 56.1945C46.7361 56.2351 46.8099 56.2967 46.8653 56.3736C46.9724 56.5325 47.0247 56.7224 47.0141 56.9142C47.0247 57.0699 46.9917 57.2256 46.9189 57.3634C46.8663 57.4374 46.7941 57.495 46.7105 57.5296C46.802 57.5593 46.8816 57.6179 46.9374 57.6966C46.9931 57.7754 47.0222 57.8702 47.0201 57.9669L47.0156 58.5599ZM46.6569 56.9127C46.6675 56.7908 46.6331 56.6692 46.5602 56.5712C46.4696 56.4956 46.3529 56.459 46.2357 56.4694H44.5775V57.3559H46.2357C46.2946 57.3608 46.354 57.3535 46.4101 57.3345C46.4661 57.3154 46.5177 57.285 46.5616 57.2451C46.6322 57.1495 46.666 57.0314 46.6569 56.9127Z" fill="black"/>
<path d="M50.8344 57.3545C50.8454 57.6124 50.827 57.8706 50.7794 58.1243C50.7109 58.3504 50.507 58.4956 50.1646 58.557C49.895 58.5897 49.6233 58.6022 49.3519 58.5945C49.0809 58.6017 48.8098 58.5892 48.5406 58.557C48.1968 58.4926 47.9899 58.3504 47.9229 58.1272C47.8742 57.8728 47.8558 57.6134 47.8678 57.3545C47.8562 57.0952 47.8747 56.8354 47.9229 56.5803C47.9899 56.3542 48.1953 56.2089 48.5377 56.1475C48.8076 56.113 49.0798 56.0995 49.3519 56.1071C49.6233 56.0997 49.895 56.1122 50.1646 56.1445C50.507 56.2074 50.7109 56.3527 50.7794 56.5773C50.8272 56.8334 50.8456 57.0942 50.8344 57.3545ZM50.4742 57.3545C50.4742 56.9053 50.4281 56.6462 50.3328 56.5668C50.2375 56.4875 49.9026 56.4351 49.3504 56.4351C49.113 56.4293 48.8755 56.4363 48.6389 56.456C48.5695 56.4598 48.5024 56.4821 48.4443 56.5205C48.3863 56.5589 48.3394 56.6121 48.3084 56.6747C48.2405 56.8945 48.2128 57.1248 48.2266 57.3545C48.2122 57.5806 48.241 57.8073 48.3114 58.0224C48.3432 58.0852 48.3906 58.1387 48.4491 58.1775C48.5075 58.2164 48.575 58.2393 48.6448 58.2441C48.8794 58.2654 49.115 58.2729 49.3504 58.2665C49.5862 58.2725 49.8222 58.266 50.0574 58.247C50.1272 58.2424 50.1945 58.2197 50.2529 58.1811C50.3114 58.1426 50.3589 58.0894 50.3908 58.0269C50.461 57.8102 50.4893 57.582 50.4742 57.3545Z" fill="black"/>
<path d="M55.9164 58.56H53.7061V56.1415H54.0663V58.238H55.9105L55.9164 58.56Z" fill="black"/>
<path d="M58.6947 58.56H56.4902V56.1415H56.8504V58.238H58.6947V58.56Z" fill="black"/>
<path d="M62.0407 57.7183C62.0606 57.9486 61.9995 58.1786 61.868 58.3682C61.7425 58.4964 61.5733 58.5719 61.3947 58.5794C61.3083 58.5884 61.0746 58.5944 60.6906 58.5944C60.408 58.6059 60.1251 58.5828 59.8481 58.5255C59.7576 58.5046 59.6731 58.4628 59.6015 58.4032C59.5299 58.3437 59.4732 58.2681 59.4358 58.1826C59.2909 57.6376 59.2909 57.0638 59.4358 56.5188C59.4729 56.4336 59.5292 56.3583 59.6002 56.2987C59.6713 56.2392 59.7551 56.1972 59.8451 56.1759C60.1222 56.1188 60.4051 56.0957 60.6876 56.107C61.0732 56.107 61.3069 56.107 61.3917 56.122C61.5699 56.1291 61.7388 56.2034 61.865 56.3301C61.9968 56.5207 62.0579 56.7518 62.0377 56.9831H61.6775C61.6775 56.718 61.6224 56.5593 61.5123 56.5053C61.4021 56.4514 61.1446 56.435 60.6876 56.435C60.4668 56.4267 60.2456 56.4382 60.0267 56.4694C59.9627 56.4793 59.9026 56.5066 59.8527 56.5483C59.8029 56.59 59.7653 56.6445 59.7439 56.706C59.6933 56.9182 59.6732 57.1365 59.6844 57.3544C59.6732 57.57 59.6943 57.7861 59.7469 57.9954C59.769 58.0565 59.8068 58.1106 59.8565 58.1522C59.9062 58.1937 59.966 58.2213 60.0297 58.232C60.2477 58.2622 60.4678 58.2738 60.6876 58.2664C61.1401 58.2664 61.414 58.2439 61.5093 58.199C61.6209 58.1436 61.6775 57.9834 61.6775 57.7183H62.0407Z" fill="black"/>
<path d="M67.0676 54.8582H1.33579C1.22267 54.863 1.10975 54.8447 1.00383 54.8045C0.897913 54.7642 0.80118 54.7028 0.719452 54.624C0.637725 54.5452 0.572694 54.4505 0.528267 54.3457C0.48384 54.241 0.460937 54.1282 0.460938 54.0143C0.460937 53.9004 0.48384 53.7877 0.528267 53.6829C0.572694 53.5782 0.637725 53.4835 0.719452 53.4047C0.80118 53.3258 0.897913 53.2645 1.00383 53.2242C1.10975 53.184 1.22267 53.1657 1.33579 53.1705H67.0676C67.1808 53.1657 67.2937 53.184 67.3996 53.2242C67.5055 53.2645 67.6023 53.3258 67.684 53.4047C67.7657 53.4835 67.8307 53.5782 67.8752 53.6829C67.9196 53.7877 67.9425 53.9004 67.9425 54.0143C67.9425 54.1282 67.9196 54.241 67.8752 54.3457C67.8307 54.4505 67.7657 54.5452 67.684 54.624C67.6023 54.7028 67.5055 54.7642 67.3996 54.8045C67.2937 54.8447 67.1808 54.863 67.0676 54.8582Z" fill="#008556"/>
<path d="M36.8097 42.923C36.6325 42.923 36.4597 42.8666 36.3163 42.7619C36.1729 42.6571 36.0661 42.5094 36.0113 42.3398C35.9564 42.1703 35.9563 41.9876 36.0109 41.818C36.0656 41.6483 36.1722 41.5005 36.3155 41.3955C39.0968 39.3547 41.3607 36.683 42.9235 33.5972C44.4864 30.5114 45.3041 27.0984 45.3105 23.6351C45.3105 11.5338 35.5236 1.68769 23.4892 1.68769C11.4547 1.68769 1.67827 11.5338 1.67827 23.6351C1.68304 23.7489 1.66488 23.8625 1.62487 23.9691C1.58487 24.0757 1.52385 24.173 1.4455 24.2552C1.36714 24.3374 1.27306 24.4029 1.16892 24.4475C1.06478 24.4922 0.952728 24.5153 0.839507 24.5153C0.726286 24.5153 0.614233 24.4922 0.510092 24.4475C0.405951 24.4029 0.311873 24.3374 0.233517 24.2552C0.15516 24.173 0.0941494 24.0757 0.0541461 23.9691C0.0141429 23.8625 -0.00402215 23.7489 0.000744276 23.6351C0.000744276 10.6068 10.5393 0 23.4951 0C36.451 0 46.988 10.6023 46.988 23.6351C46.9813 27.3647 46.1008 31.0401 44.418 34.3632C42.7352 37.6863 40.2974 40.5634 37.3024 42.7613C37.1591 42.8659 36.9867 42.9225 36.8097 42.923Z" fill="#1D1D1B"/>
</svg>
