<svg width="26" height="25" viewBox="0 0 26 25" fill="none" xmlns="http://www.w3.org/2000/svg">
<circle cx="13.2294" cy="12.4098" r="11.4098" stroke="#013D3D" stroke-width="2"/>
<path d="M17.7661 6.69531H8.6924C7.92088 6.69531 7.18096 7.0129 6.63542 7.57822C6.08987 8.14354 5.78339 8.91028 5.78339 9.70976V15.1106C5.78339 15.9101 6.08987 16.6769 6.63542 17.2422C7.18096 17.8075 7.92088 18.1251 8.6924 18.1251H17.7661C18.5376 18.1251 19.2776 17.8075 19.8231 17.2422C20.3686 16.6769 20.6751 15.9101 20.6751 15.1106V9.70976C20.6751 8.91028 20.3686 8.14354 19.8231 7.57822C19.2776 7.0129 18.5376 6.69531 17.7661 6.69531ZM11.3226 15.6859V9.38068L16.5904 12.5333L11.3226 15.6859Z" fill="#013D3D"/>
</svg>
